<?xml version="1.0" encoding="UTF-8"?>
<svg xmlns="http://www.w3.org/2000/svg" viewBox="0 0 1024 1024">
  <defs>
    <style>
      .b {
        fill: #d0d3dd;
      }

      .c {
        fill: #060000;
      }

      .d {
        mix-blend-mode: multiply;
      }

      .d, .e, .f, .g, .h, .i, .j, .k {
        opacity: .4;
      }

      .l {
        fill: #f7cdb7;
      }

      .m {
        fill: #2f2d3a;
      }

      .n {
        fill: #8995be;
      }

      .e {
        stroke-width: 1.665px;
      }

      .e, .f, .g, .h, .i, .o, .j, .k {
        mix-blend-mode: overlay;
      }

      .e, .f, .g, .h, .i, .p, .k {
        fill: none;
        stroke-linecap: round;
        stroke-linejoin: round;
      }

      .e, .f, .g, .h, .i, .k {
        stroke: #060000;
      }

      .q {
        isolation: isolate;
      }

      .r {
        fill: #fff;
      }

      .f {
        stroke-width: 1.8881px;
      }

      .g {
        stroke-width: 1.8986px;
      }

      .s {
        fill: #976a69;
      }

      .t {
        fill: #af9bd6;
      }

      .h {
        stroke-width: 2.1955px;
      }

      .i {
        stroke-width: 2.2483px;
      }

      .o {
        opacity: .2;
      }

      .u {
        fill: #382743;
      }

      .p {
        stroke: #382743;
        stroke-width: 3.1512px;
      }

      .k {
        stroke-width: 2.521px;
      }
    </style>
  </defs>
  <g class="q">
    <g id="a" data-name="Brisk Walk">
      <g>
        <path class="u" d="M577.3514,234.6178s-4.3007,32.1239,11.3671,39.4199c16.5377,7.7011,14.1241,33.4763.6425,39.6086-22.2064,10.1009-7.8883,10.9035-20.0607,19.751-12.1724,8.8475-30.6952,3.512-30.6952,3.512,0,0-28.8648-11.4109-54.0326-3.1868-25.1678,8.224-35.294,5.9835-37.6867-15.3191-2.3927-21.3026-22.3494,1.8669-24.7505-20.2258-2.4011-22.0927,22.2962-12.4501,26.8396-59.9157,4.5434-47.4657,128.3764-3.6441,128.3764-3.6441Z"/>
        <path class="b" d="M426.7725,865.8868c-50.9606-7.0205-65.949-8.325-96.8597-6.4385-33.6895,2.056-71.2576,31.7785-61.1247,50.1189,4.2925,7.7692,1.6771,24.7934,95.0661,26.9922,88.733,2.0891,101.8056,15.8522,136.1576,20.0221,49.4954,6.0081,122.3384-25.6308,160.3205-22.2371,34.3358,3.0679,129.2234,10.3372,118.0308-28.3218-6.4658-22.3327-59.3418-31.8494-85.1129-34.3759-53.0471-5.2005-47.3002-18.2248-127.1904-21.2635-44.8723-1.7068-51.5633,27.5889-139.2873,15.5038Z"/>
        <g>
          <path class="l" d="M539.7148,853.0535c.0672.0201.1342.0398.2017.0588,9.8738,2.8099,23.308-3.8489,28.7252-22.604l56.3062-172.2518c3.2888-12.1433,2.8432-38.0977-20.6759-45.137-24.6611-7.3811-34.6363,18.5221-37.925,30.665l-39.5576,174.7238c-5.1715,22.2131,3.1811,31.6287,12.9255,34.5452Z"/>
          <g>
            <g>
              <path class="m" d="M564.2946,829.848c4.4916.1284,5.1596,2.1167,6.2615,4.772,1.1074,2.6554,2.4321,11.4591,9.3117,18.9524,6.8791,7.4927,22.0241,17.4362,22.0241,17.4362l-1.4534,21.3482-80.8765-2.3123s1.7046-16.833,2.9179-28.6878c1.2034-11.8495,3.3187-26.3771,3.3416-27.9357.0275-1.5534.3175-4.6637,3.0445-4.5858,2.7275.078,35.4286,1.0129,35.4286,1.0129Z"/>
              <path class="r" d="M601.3348,870.6329s11.0863,6.5491,15.1537,9.6689c4.0721,3.125,5.5191,7.0445,5.4005,12.6683l-31.577-.9028s1.8768-15.6285,11.0228-21.4343Z"/>
              <path class="r" d="M519.562,890.0444l-.6017,8.8387c-.1005,1.4766,1.1195,2.3308,3.314,2.3935l95.382,2.727c2.1991.0629,3.5304-.7184,3.6309-2.195.1002-1.4715.6017-8.8387.6017-8.8387l-102.327-2.9256Z"/>
              <g>
                <path class="r" d="M572.6072,859.0394l6.6413-5.3861c1.1832-.9725,2.8583-.8,3.7284.3755.8708,1.1833.6085,2.9176-.5885,3.8849l-6.6419,5.3862c-.4115.3378-.882.5302-1.3558.5966-.893.1251-1.8075-.2101-2.3732-.9792-.8702-1.1762-.6084-2.9176.5898-3.8779Z"/>
                <path class="r" d="M566.4944,849.8402l7.6744-4.0485c1.3438-.7068,2.9383-.2006,3.5486,1.146.6233,1.3382.0386,3.007-1.3052,3.7139l-7.6734,4.0556c-.335.1711-.6788.2736-1.0253.3063-1.0395.098-2.0626-.4414-2.5236-1.4594-.6236-1.3453-.0393-3.007,1.3045-3.7138Z"/>
                <path class="r" d="M562.3648,838.8675l8.7626-1.9716c1.4415-.3212,2.8601.5975,3.1212,2.0817.2613,1.4706-.7056,2.9403-2.1614,3.2682l-8.762,1.9716c-.2291.0491-.4482.0635-.6728.0571-1.1923-.0341-2.2334-.8928-2.4554-2.139-.2615-1.477.7118-2.9401,2.1678-3.268Z"/>
              </g>
            </g>
            <g class="d">
              <path class="m" d="M614.5868,879.6284c10.2617,2.8839,8.4932,16.8394,6.4328,24.8679-.0839.3342-.3952.5508-.7258.5289l-13.6792-.4839c-31.8511-1.2447-63.9042-2.7713-95.6735-5.1775,31.8522.4698,63.9207,1.8399,95.7505,3.4738,0,0,13.667.7521,13.667.7521l-.7255.5286c2.1698-7.8406,4.6976-20.9056-5.0464-24.49h0Z"/>
            </g>
          </g>
        </g>
        <path class="f" d="M624.9165,639.9488s-9.7772,17.1519-35.9758,10.898"/>
        <g>
          <path class="l" d="M624.8625,656.2289c.039-.0916.0775-.183.1155-.2751,5.5804-13.4731,1.9889-32.5979-16.6062-41.5262l-144.7952-57.7611c-12.0968-5.4777-26.4058-13.4532-46.6814,10.3007-23.525,27.5608,7.4508,54.4759,19.5472,59.9534l148.1799,44.6089c22.349,8.8495,34.5799-2.0151,40.2402-15.3007Z"/>
          <path class="f" d="M619.3053,636.3193s7.4246,18.3643-18.2496,26.5072"/>
        </g>
        <g>
          <path class="s" d="M539.7148,853.0535c.0672.0201.1342.0398.2017.0588,9.8738,2.8099,23.308-3.8489,28.7252-22.604l56.3062-172.2518c3.2888-12.1433,2.8432-38.0977-20.6759-45.137-24.6611-7.3811-34.6363,18.5221-37.925,30.665l-39.5576,174.7238c-5.1715,22.2131,3.1811,31.6287,12.9255,34.5452Z"/>
          <g>
            <g>
              <path class="m" d="M564.2946,829.848c4.4916.1284,5.1596,2.1167,6.2615,4.772,1.1074,2.6554,2.4321,11.4591,9.3117,18.9524,6.8791,7.4927,22.0241,17.4362,22.0241,17.4362l-1.4534,21.3482-80.8765-2.3123s1.7046-16.833,2.9179-28.6878c1.2034-11.8495,3.3187-26.3771,3.3416-27.9357.0275-1.5534.3175-4.6637,3.0445-4.5858,2.7275.078,35.4286,1.0129,35.4286,1.0129Z"/>
              <path class="r" d="M601.3348,870.6329s11.0863,6.5491,15.1537,9.6689c4.0721,3.125,5.5191,7.0445,5.4005,12.6683l-31.577-.9028s1.8768-15.6285,11.0228-21.4343Z"/>
              <path class="r" d="M519.562,890.0444l-.6017,8.8387c-.1005,1.4766,1.1195,2.3308,3.314,2.3935l95.382,2.727c2.1991.0629,3.5304-.7184,3.6309-2.195.1002-1.4715.6017-8.8387.6017-8.8387l-102.327-2.9256Z"/>
              <g>
                <path class="r" d="M572.6072,859.0394l6.6413-5.3861c1.1832-.9725,2.8583-.8,3.7284.3755.8708,1.1833.6085,2.9176-.5885,3.8849l-6.6419,5.3862c-.4115.3378-.882.5302-1.3558.5966-.893.1251-1.8075-.2101-2.3732-.9792-.8702-1.1762-.6084-2.9176.5898-3.8779Z"/>
                <path class="r" d="M566.4944,849.8402l7.6744-4.0485c1.3438-.7068,2.9383-.2006,3.5486,1.146.6233,1.3382.0386,3.007-1.3052,3.7139l-7.6734,4.0556c-.335.1711-.6788.2736-1.0253.3063-1.0395.098-2.0626-.4414-2.5236-1.4594-.6236-1.3453-.0393-3.007,1.3045-3.7138Z"/>
                <path class="r" d="M562.3648,838.8675l8.7626-1.9716c1.4415-.3212,2.8601.5975,3.1212,2.0817.2613,1.4706-.7056,2.9403-2.1614,3.2682l-8.762,1.9716c-.2291.0491-.4482.0635-.6728.0571-1.1923-.0341-2.2334-.8928-2.4554-2.139-.2615-1.477.7118-2.9401,2.1678-3.268Z"/>
              </g>
            </g>
            <g class="d">
              <path class="m" d="M614.5868,879.6284c10.2617,2.8839,8.4932,16.8394,6.4328,24.8679-.0839.3342-.3952.5508-.7258.5289l-13.6792-.4839c-31.8511-1.2447-63.9042-2.7713-95.6735-5.1775,31.8522.4698,63.9207,1.8399,95.7505,3.4738,0,0,13.667.7521,13.667.7521l-.7255.5286c2.1698-7.8406,4.6976-20.9056-5.0464-24.49h0Z"/>
            </g>
          </g>
        </g>
        <path class="f" d="M624.9165,639.9488s-9.7772,17.1519-35.9758,10.898"/>
        <g>
          <path class="s" d="M624.8625,656.2289c.039-.0916.0775-.183.1155-.2751,5.5804-13.4731,1.9889-32.5979-16.6062-41.5262l-144.7952-57.7611c-12.0968-5.4777-26.4058-13.4532-46.6814,10.3007-23.525,27.5608,7.4508,54.4759,19.5472,59.9534l148.1799,44.6089c22.349,8.8495,34.5799-2.0151,40.2402-15.3007Z"/>
          <path class="f" d="M619.3053,636.3193s7.4246,18.3643-18.2496,26.5072"/>
        </g>
        <g>
          <path class="s" d="M483.0611,855.8166c.0672.0201.1342.0398.2017.0588,9.8738,2.8099,23.308-3.8489,28.7252-22.604l56.3062-172.2518c3.2888-12.1433,2.8432-38.0977-20.6759-45.137-24.6611-7.3811-34.6363,18.5221-37.925,30.665l-39.5576,174.7238c-5.1715,22.2131,3.1811,31.6287,12.9255,34.5452Z"/>
          <g>
            <g>
              <path class="m" d="M507.6409,832.6111c4.4916.1284,5.1596,2.1167,6.2615,4.772,1.1074,2.6554,2.4321,11.4591,9.3117,18.9524,6.8791,7.4927,22.0241,17.4362,22.0241,17.4362l-1.4534,21.3482-80.8765-2.3123s1.7046-16.833,2.9179-28.6878c1.2034-11.8495,3.3187-26.3771,3.3416-27.9357.0275-1.5534.3175-4.6637,3.0445-4.5858,2.7275.078,35.4286,1.0129,35.4286,1.0129Z"/>
              <path class="r" d="M544.6811,873.396s11.0863,6.5491,15.1537,9.6689c4.0721,3.125,5.5191,7.0445,5.4005,12.6683l-31.577-.9028s1.8768-15.6285,11.0228-21.4343Z"/>
              <path class="r" d="M462.9083,892.8075s-.5016,7.3672-.6017,8.8387c-.1005,1.4766,1.1195,2.3308,3.314,2.3935l95.382,2.727c2.1991.0629,3.5304-.7184,3.6309-2.195.1002-1.4715.6017-8.8387.6017-8.8387l-102.327-2.9256Z"/>
              <g>
                <path class="r" d="M515.9535,861.8025l6.6413-5.3861c1.1832-.9725,2.8583-.8,3.7284.3755.8708,1.1833.6085,2.9176-.5885,3.8849l-6.6419,5.3862c-.4115.3378-.882.5302-1.3558.5966-.893.1251-1.8075-.2101-2.3732-.9792-.8702-1.1762-.6084-2.9176.5898-3.8779Z"/>
                <path class="r" d="M509.8407,852.6033l7.6744-4.0485c1.3438-.7068,2.9383-.2006,3.5486,1.146.6233,1.3382.0386,3.007-1.3052,3.7139l-7.6734,4.0556c-.335.1711-.6788.2736-1.0253.3063-1.0395.098-2.0626-.4414-2.5236-1.4594-.6236-1.3453-.0393-3.007,1.3045-3.7138Z"/>
                <path class="r" d="M505.7111,841.6306l8.7626-1.9716c1.4415-.3212,2.8601.5975,3.1212,2.0817.2613,1.4706-.7056,2.9403-2.1614,3.2682l-8.762,1.9716c-.2291.0491-.4482.0635-.6728.0571-1.1923-.0341-2.2334-.8928-2.4554-2.139-.2615-1.477.7118-2.9401,2.1678-3.268Z"/>
              </g>
            </g>
            <g class="d">
              <path class="m" d="M557.9331,882.3915c10.2618,2.8843,8.4931,16.8395,6.4327,24.868-.0843.3361-.3989.5533-.7317.5286,0,0-12.678-.5441-12.678-.5441-29.5187-1.3848-59.2218-3.0522-88.6497-5.5979,29.527.6099,59.2464,2.1212,88.7408,3.895,0,0,12.6636.8122,12.6636.8122l-.7314.5283c2.1693-7.8408,4.698-20.9052-5.0464-24.4901h0Z"/>
            </g>
          </g>
        </g>
        <path class="f" d="M568.2628,642.7119s-9.7772,17.1519-35.9758,10.898"/>
        <path class="u" d="M530.6258,200.6834s79.1254-10.1236,32.5921,69.5304l-32.5921-69.5304Z"/>
        <path class="u" d="M555.6703,204.0216s-77.828-28.0603-103.2566,23.1716c-15.0119,30.2449,7.7788,83.6185,44.7534,96.6482,35.2211,12.4119,18.481-106.177,18.481-106.177l40.0222-13.6428Z"/>
        <path class="s" d="M696.8483,405.5135l-111.4884-10.0139c-12.3595-2.2924-16.4268-10.9711-17.3014-21.5983-.8345-10.0617,5.7365-18.8777,14.1695-18.657l110.1828,11.9465c8.4412.218,16.3142,8.3483,17.8497,18.4438l.1044.7155c1.6327,10.7329-4.5283,19.4597-13.5167,19.1634Z"/>
        <path class="t" d="M602.1259,352.9534s-.8779,36.7313-9.872,56.6111c0,0-76.0129,5.5055-82.9688-32.8872,0,0,14.2436-45.4256,92.8408-23.724Z"/>
        <path class="g" d="M595.3561,352.2656s1.3746,13.1575-1.5206,22.6952"/>
        <path class="s" d="M780.1581,409.3208l-78.6964-4.0385c-10.0029.3506-23.3185-4.2525-21.0644-19.4361,1.3825-9.3025,9.2553-17.416,20.2941-17.0072l86.2996,12.4201c7.8985.5826,11.7793,6.4146,10.3982,14.5747-1.6608,9.8208-7.0444,13.7988-17.231,13.4871Z"/>
        <path class="s" d="M776.2851,380.1321c10.5272-1.5892,31.5514-6.3536,37.7048-6.7199,6.1623-.3538,13.7826,1.2874,17.4403,2.1366,3.6519.8289,9.2991,4.0341,11.9557,5.4937,2.6472,1.4605,2.9412,2.8061,1.9482,4.304-1.0005,1.5045-3.1628,2.3551-5.8324,2.1999,0,0,2.9056,2.3058,4.3593,3.4853,1.46,1.1869,1.6112,3.0838-.5656,4.5307-2.1818,1.4492-7.0944,1.9015-10.4983.3131,0,0,5.5984,5.0575,6.8842,6.5052,1.2988,1.4481,1.3693,2.3684.2494,3.8271-1.1245,1.4484-3.4029,3.1747-6.5965,2.7454-3.1859-.4269-8.0187-3.6323-8.0187-3.6323,0,0,6.0327,7.3848,7.1518,9.026,1.1206,1.6504.5289,2.8011-1.2048,3.5006-1.7386.6886-3.9024,1.5654-7.2911.2174-3.385-1.3471-4.3978-3.9913-5.5038-4.5837-1.0995-.599-5.8815-1.6445-8.3399-2.2508-9.0539,1.4588-12.4456-1.023-16.2013-1.533-3.7507-.4995-7.7939-1.7075-12.5932-.7964-6.0427,1.2972-15.2931-3.5413-16.4122-13.4077-1.1121-9.8728,3.4034-13.9742,11.364-15.3612Z"/>
        <path class="g" d="M475.7465,386.6977s6.3899,18.9826,2.0553,50.8437"/>
        <path class="s" d="M542.72,248.1l-2.5601,76.9601-.1399,4.3398-.62,18.5601c-.03,2.03-.3099,3.9-.8199,5.6101-2.4801,8.23-8.28,10.6699-17.27,10.5399l-15.8301-.23c-10.85-.16-16.25-5.42-16.08-17.27l-.52-26.48-1.4401-72.83c.17-11.3801,8.42-15.04,18.7001-15.16.41-.01.83-.01,1.25,0l3.75.0499,6.22.0901,5.86.09c10.8601.16,19.6801,3.9,19.5,15.73Z"/>
        <rect class="s" x="470.3091" y="265.908" width="32.7709" height="22.7551" rx="11.0436" ry="11.0436" transform="translate(969.3064 561.6175) rotate(-179.167)"/>
        <path class="j" d="M542.8201,245.25l-1.1602,79.48c-.49.13-.99.24-1.5.3301l-.1399,4.3398c-1.63.1201-3.52-.0099-5.03-.0898-9.39-.4801-17.98-3.8701-23.78-9.6001-3.6899-3.6399-6.24-8.23-7.1399-13.61-.2101-1.1901-.3301-2.42-.3601-3.6901l-1.27-49.26c-.01-.3699-.01-.75-.01-1.1199.1101-7.6801,3.4102-14.6801,8.7101-19.8401.0199-.02.0499-.0499.0699-.0699l6.14.09,6.6901.1001c10.4299.1499,18.9199,3.23,18.78,12.9399Z"/>
        <path class="s" d="M562.15,292.1799c.35,14.77-7.1801,29.15-20.4901,32.55-.49.13-.99.24-1.5.3301-1.2899.25-2.6199.3899-4.0099.4199l-3.01.0701c-7.91.1899-15.2201-2.7101-20.76-7.5801-3.64-3.21-6.52-7.27-8.3099-11.87-1.23-3.1801-1.9401-6.62-2.03-10.21l-1.0901-46.1c-.1599-6.51,1.78-12.6101,5.1901-17.65,2.6-3.87,6.08-7.12,10.15-9.4501,4.24-2.4399,9.1199-3.8799,14.3199-4l3-.0699c16.7101-.4,30.7001,12.9501,31.1,29.65l-2.5599,43.9099Z"/>
        <path class="e" d="M483.7989,270.3485c-3.6811-.0535-6.7086,2.8872-6.7621,6.5683s2.8872,6.7086,6.5683,6.7621"/>
        <ellipse class="c" cx="554.6915" cy="270.4822" rx="4.8873" ry="3.4548" transform="translate(276.1737 821.1828) rotate(-89.167)"/>
        <ellipse class="c" cx="524.5227" cy="270.0436" rx="4.8873" ry="3.4548" transform="translate(246.8822 790.5849) rotate(-89.167)"/>
        <polyline class="k" points="545.0351 276.4588 546.5292 286.8341 541.0962 287.8195"/>
        <path class="k" d="M541.7553,299.3373s-8.9217,1.8863-13.5712-4.5851"/>
        <path class="p" d="M528.6535,248.7505s-6.4951-2.4643-12.2071,2.2875"/>
        <path class="p" d="M559.382,251.1379s-4.5607-4.0077-10.6922-1.8691"/>
        <path class="s" d="M560.77,414.55s.08,2.3999.04,6.3599c-.01.5701-.02,1.1801-.03,1.8201-.28,15.54-2.4,49.1-14.96,63.6799-.8601,1-1.7001,2-2.52,3-11.1001,13.3901-25.2001,33.8-34.5,56.1301-1.3301,3.2-2.55,6.3999-3.6801,9.6099-.01.03-.02.0701-.0299.1001-10.78,30.78-12.4302,60.3999-12.4302,60.3999l-126.3699-46.73,19.0599-26.9299c6.42-9.0701,11.9801-18.7,16.6-28.76.42-.9099.8301-1.8301,1.23-2.75,3.24-7.3101,5.9701-14.85,8.1901-22.55l12.9-25.75c6.33-12.95,6.1599-28.1199,9.3899-42.1699l1.4501-6.3.1901-.8199,8.35-36.2401,2.75-11.9299.5099-2.23,1-4.3301c.9202-.8199,1.9901-1.5599,3.1901-2.23,14.36-8.01,46.35-5.35,46.35-5.35,6.1001,6.9301,12.6001,11.58,18.8401,14.67,17.1899,8.52,32.47,5.2,32.47,5.2,2.9299,3.21,5.1699,6.8601,6.88,10.66.11.24.22.49.3199.74.27.62.53,1.24.77,1.87,3.55,9.23,4.25,18.9,4.27,24.89.01,3.65-.23,5.9401-.23,5.9401Z"/>
        <path class="t" d="M560.8101,420.9099c-.01.5701-.02,1.1801-.03,1.8201-.28,15.54-2.4,49.1-14.96,63.6799-.8601,1-1.7001,2-2.52,3-25.48,31.05-33.99,64.6401-33.99,64.6401l-3.7101,1.0599-.5099.14-1.9202.55c-30.1299,3.4199-61.8799-15.5-92.9199-35.7201l-8.3-6.85-4.1299-3.4099,18.9399-45.9601c5.98-12.2101,4.14-51.62,6.63-67.85v-.01c.15-.98.3199-1.87.5-2.67l.7999-1.35,9.4301-16.01,5.88-9.97,1.7-2.89,4.78-8.1c.25-.0901.5-.1801.76-.27h.02c15.55-5.47,42.47-13.1699,42.47-13.1699.0601.0599.12.1199.17.1799,14.1901,14.74,26.89,16.74,35.9401,15.1899,1.1899-.2,2.3198-.47,3.3799-.78,6.4399-1.8699,10.3401-5.26,10.5901-5.48l.01-.01c7.8398,8.25,12.75,19.6001,15.8199,30.4401.0699.24.14.49.2001.73.1799.62.3398,1.24.5,1.85,2.5698,9.9,3.6499,19.1201,4.0999,24.8601.3,3.74.3301,6,.3301,6,0,0,.08,2.3999.04,6.3599Z"/>
        <path class="o" d="M564.39,420.1c-.01.35-.01.7201-.01,1.11l-3.5699-.3c-.01.5701-.02,1.1801-.03,1.8201-.28,15.54-2.4,49.1-14.96,63.6799-.8601,1-1.7001,2-2.52,3-25.48,31.05-33.99,64.6401-33.99,64.6401l-3.7101,1.0599c-.16.01-.3199.03-.48.0399-29.64,2.5801-60.8099-16.0199-91.2899-35.8799l-8.3-6.8501-2.3501-1.9399-1.7799-1.47,18.9401-45.96c5.0898-10.4001,4.5099-40.52,5.7699-59.26.0499-.8301.11-1.6401.17-2.42.1899-2.29.4099-4.37.6899-6.17.15-.98.3201-1.8799.5-2.6799l.8-1.3501,9.4299-16.01,5.8801-9.97.0299-.0499,1.4701-2.4901.2-.3499,4.78-8.1001c.25-.09.5-.1799.76-.27h.02c12.1799-4.28,27.3575-6.2411,35.0977-8.4911,2.14-.63,3.9981,3.4165,3.9981,3.4165,12.8099,13.3899,27.1815,11.8751,36.0016,11.2052.9199-.0601,2.3497-.3822,3.2097-.5324.0701-.01.2028-3.3882.2728-3.3982,8.4102-1.4401,10.29-5.2101,10.3901-5.4501l.01-.01c7.8398,8.25,16.33,18.79,19.3999,29.6301.0701.24.14.49.2.73.1201.3999.2301.8099.3301,1.21.0601.21.11.4299.1699.64.1001.4.2101.7999.3,1.2,2.3601,9.4401,3.3701,18.15,3.8,23.66.03.4199.0601.8301.09,1.21.2201,3.01.24,4.79.24,4.79,0,0,.08,2.4.04,6.36Z"/>
        <path class="t" d="M560.8101,420.9099c-.01.5701-.02,1.1801-.03,1.8201-.28,15.54-2.4,49.1-14.96,63.6799-.8601,1-1.7001,2-2.52,3-25.48,31.05-33.99,64.6401-33.99,64.6401l-3.7101,1.0599-.5099.14-1.9202.55c-30.1299,3.4199-61.8799-15.5-92.9199-35.7201l-8.3-6.85-4.1299-3.4099,18.9399-45.9601c5.98-12.2101,4.14-51.62,6.63-67.85v-.01c.15-.98.3199-1.87.5-2.67l.7999-1.35,9.4301-16.01,5.88-9.97,1.7-2.89,4.78-8.1c.25-.0901.5-.1801.76-.27h.02c15.55-5.47,42.47-13.1699,42.47-13.1699.0601.0599.12.1199.17.1799,14.1901,14.74,26.89,16.74,35.9401,15.1899,1.1899-.2,2.3198-.47,3.3799-.78,6.4399-1.8699,10.3401-5.26,10.5901-5.48l.01-.01c7.8398,8.25,12.75,19.6001,15.8199,30.4401.0699.24.14.49.2001.73.1799.62.3398,1.24.5,1.85,2.5698,9.9,3.6499,19.1201,4.0999,24.8601.3,3.74.3301,6,.3301,6,0,0,.08,2.3999.04,6.3599Z"/>
        <path class="g" d="M539.9935,362.6944s-19.8686,16.1324-52.4949-12.3427"/>
        <path class="o" d="M609.54,424.2l-4.6101-.21c-.58.02-1.1599.03-1.76.02-.9099.1899-1.8599.27-2.8499.24l-35.9401-3.04-3.5699-.3c-.01.5701-.02,1.1801-.03,1.8201l-58.74-4.97c-1.16,4.73-2.5801,9.22-4.3,13.08,0,0-7.6699-.7799-18.8999-3.09-11.5601-2.38-26.8901-6.39-41.51-12.8501-.77-.3398-1.51-.74-2.2201-1.1899-1.5-.95-2.84-2.13-4.0199-3.49-2.1401-2.46-3.7401-5.51-4.8101-8.85-.96-2.9701-1.49-6.17-1.5901-9.39-.1799-5.8101,1.02-11.6899,3.6101-16.4199,2.0599-3.78,5.02-6.8201,8.8699-8.52.8901-.3901,1.8301-.74,2.8301-1.04,1.13-.3501,2.3401-.64,3.61-.86.89-.1801,1.8199-.3101,2.79-.42,2.8199-.33,5.92-.4299,9.3199-.3101,11.1001.3801,25.3301,3.02,42.8401,7.4701,2.1899.5599,4.4299,1.14,6.72,1.75.6699.1801,1.35.36,2.04.5499,0,0-.02.9501-.0801,2.6401-.03.5299-.0601,1.1299-.09,1.7899l2.63.27,46.5601,4.8099.3899.03,3.49.36,10.63,1.1,26.83,2.77c.26.01.52.02.78.04.14.01.28.02.41.04,3.3099.36,6.49,1.8999,9.1901,4.28,1.78,1.5599,3.34,3.47,4.5999,5.6399,1.4601,2.5,2.5,5.3401,2.9701,8.3501l.1.72c1.1799,7.48-1.4399,14.01-6.1899,17.1799Z"/>
        <path class="s" d="M603.1699,424.01c-.9099.1899-1.8599.27-2.8499.24l-35.9401-3.04-3.5699-.3-60.78-5.1499-11.25-.95c-3.98-.7201-7.1201-2.1001-9.5601-4.01-5.1299-4-7.23-10.3-7.86-17.5-.88-10.05,5.64-18.9001,14.08-18.73l13.1501,1.3599,6.5599.6801,2.09.2101,2.12.22,46.4801,4.7999.1199.01,3.79.39,10.28,1.0601,25.6499,2.6499c1.03.02,2.0601.16,3.0701.42,1.13.27,2.23.6801,3.3,1.22,2.21,1.1,4.26,2.7201,6.01,4.7201,1.4199,1.6199,2.6399,3.5,3.5999,5.5499.9302,2,1.6001,4.17,1.9601,6.4401l.11.72c1.5,9.54-3.1699,17.53-10.5601,18.99Z"/>
        <path class="t" d="M505.3219,372.1803s-.6876,36.7353-9.5786,56.6615c0,0-31.5913-3.2018-60.4192-15.9388-16.7687-7.409-16.9276-40.4722-.1514-47.8642,12.5693-5.5384,35.7142-2.1747,70.1492,7.1415Z"/>
        <path class="g" d="M498.5486,371.5275s.76,15.5083-3.6204,30.9541"/>
        <path class="s" d="M700.8,414.05c-1.6101,9.83-6.97,13.83-17.16,13.5699l-74.1-3.42-4.6101-.21c-.58.02-1.1599.03-1.76.02-8.45-.14-18.4099-3.8301-19.5299-14.1899-.1801-1.5601-.15-3.28.12-5.1501.47-3.24,1.72-6.34,3.63-8.99,2.58-3.6199,6.38-6.3999,11.0399-7.5499.1401-.04.29-.0699.4401-.1,1.02-.23,2.08-.3801,3.1801-.4401.6299-.0399,1.27-.0499,1.9199-.0299l86.3601,11.97c4.5999.3099,7.8499,2.4099,9.5,5.73,1.1699,2.37,1.5299,5.38.97,8.79Z"/>
        <path class="s" d="M679.6195,398.4565c10.5188-1.6437,31.5181-6.5169,37.6695-6.9151,6.1603-.3857,13.7891,1.216,17.4512,2.0462,3.6561.8099,9.3198,3.9859,11.984,5.4317,2.6548,1.4468,2.9556,2.7909,1.9705,4.2939-.9927,1.5097-3.1506,2.3714-5.8209,2.2301,0,0,2.9175,2.2907,4.3773,3.4627,1.4662,1.1793,1.6272,3.0754-.5422,4.5336-2.1742,1.4604-7.0845,1.9382-10.4966.3675,0,0,5.6245,5.0284,6.9178,6.4695,1.3063,1.4414,1.3815,2.3612.2693,3.8258-1.117,1.4542-3.3864,3.1923-6.5822,2.7795-3.1881-.4104-8.0375-3.5908-8.0375-3.5908,0,0,6.0709,7.3534,7.1985,8.9888,1.1291,1.6446.5434,2.7983-1.1867,3.5068-1.735.6976-3.8942,1.5856-7.2899.2551-3.3919-1.3295-4.4184-3.9684-5.5275-4.5551-1.1026-.5933-5.8899-1.614-8.3514-2.2075-9.0462,1.5057-12.4507-.9585-16.209-1.4491-3.7532-.4801-7.8027-1.6671-12.5971-.7312-6.0359,1.3285-15.3112-3.462-16.4814-13.3225-1.1632-9.8669,3.3309-13.9917,11.2842-15.4199Z"/>
        <polyline class="i" points="741.4358 404.9181 735.4703 400.9819 719.7169 398.3274"/>
        <polyline class="h" points="734.8107 413.1019 729.5118 410.2605 718.1448 406.9639"/>
        <line class="h" x1="727.7906" y1="422.2804" x2="715.8352" y2="417.1484"/>
        <path class="u" d="M547.2074,213.0549s-6.4735,62.6578-71.85,53.3701l-13.8657-30.6204,27.9588-27.9989,29.5703-6.2058,28.1867,11.4549Z"/>
        <path class="u" d="M539.6542,215.6441s20.2334,42.9825,28.8911,42.3418c0,0,9.0337-42.7753-28.8911-42.3418Z"/>
        <g>
          <path class="s" d="M568.2088,658.992c.039-.0916.0775-.183.1155-.2751,5.5804-13.4731,1.9889-32.5979-16.6062-41.5262l-144.7952-57.7611c-12.0968-5.4777-26.4058-13.4532-46.6814,10.3007-23.525,27.5608,7.4508,54.4759,19.5472,59.9534l148.1799,44.6089c22.349,8.8495,34.5799-2.0151,40.2402-15.3007Z"/>
          <path class="f" d="M562.6516,639.0824s7.4246,18.3643-18.2496,26.5072"/>
        </g>
        <path class="t" d="M425.3183,375.351s6.6995-14.7087,19.2732-19.9544c12.5738-5.2457,12.8957,22.2376,12.8957,22.2376l-32.1689-2.2832Z"/>
        <path class="n" d="M385.354,541.9887s55.2283,47.796,116.1261,24.7516l-.9597,4.6888,49.1017,19.4189s-21.7375-1.2758-32.2616,15.2052l-35.1518-15.3819s-53.4196,14.1631-36.5225,60.218c0,0-94.9734-18.0655-95.9932-56.9736-1.0862-41.4402,35.661-51.927,35.661-51.927Z"/>
      </g>
    </g>
  </g>
</svg>