<?xml version="1.0" encoding="UTF-8"?>
<svg xmlns="http://www.w3.org/2000/svg" viewBox="0 0 1024 1024">
  <defs>
    <style>
      .b {
        fill: #d0d3dd;
      }

      .c {
        fill: #2f2d3a;
      }

      .d {
        stroke-width: 1.6044px;
      }

      .d, .e, .f, .g, .h, .i, .j {
        stroke: #060000;
      }

      .d, .e, .f, .g, .h, .i, .j, .k {
        fill: none;
        stroke-linecap: round;
        stroke-linejoin: round;
      }

      .d, .e, .f, .g, .h, .i, .j, .l, .m {
        mix-blend-mode: overlay;
      }

      .d, .e, .f, .g, .h, .i, .j, .m {
        opacity: .4;
      }

      .n {
        fill: #8995be;
      }

      .e {
        stroke-width: 1.643px;
      }

      .f {
        stroke-width: 1.3875px;
      }

      .g {
        stroke-width: 1.3683px;
      }

      .h {
        stroke-width: 1.3798px;
      }

      .o {
        isolation: isolate;
      }

      .p {
        fill: #bf886f;
      }

      .q {
        fill: #fff;
      }

      .i {
        stroke-width: 1.8423px;
      }

      .r {
        fill: #af9bd6;
      }

      .j {
        stroke-width: 1.2167px;
      }

      .k {
        stroke: #382743;
        stroke-width: 2.3029px;
      }

      .l {
        opacity: .2;
      }

      .s {
        fill: #382743;
      }
    </style>
  </defs>
  <g class="o">
    <g id="a" data-name="Brisk Walk">
      <path class="b" d="M452.1963,875.1541c-28.6084-4.3472-37.0227-5.1549-54.3754-3.9868-18.9127,1.2731-40.0028,19.6776-34.3144,31.0341,2.4097,4.8108.9415,15.3523,53.3685,16.7138,49.8132,1.2936,57.152,9.8158,76.4366,12.3978,27.7859,3.7203,68.6787-15.8708,90.0012-13.7694,19.2755,1.8997,72.5438,6.4009,66.2605-17.5371-3.6298-13.8286-33.3135-19.7214-47.7809-21.2859-29.7798-3.2202-26.5535-11.285-71.4026-13.1666-25.1906-1.0569-28.9468,17.0833-78.1936,9.6001Z"/>
      <g>
        <path class="p" d="M596.6398,230.106c3.5223-3.9621,9.2607-6.4168,14.9153-5.9762l.5359.0476c7.2384.5573,11.7745,5.6728,10.9158,11.7039-.0927.7407-.2755,1.4803-.5343,2.2279l-10.001,24.2984-7.0275,17.0565-1.21,2.9476-13.2594,32.2023-3.5342,8.5837c-4.7371,9.2263-11.9753,10.8526-19.8217,9.6526-.996-.1501-1.9368-.4015-2.8186-.7287-.1585-.068-.3099-.1315-.4616-.1945-.4883-.2-.9629-.437-1.4021-.6974-.9395-.5363-1.7795-1.1799-2.5159-1.9058-2.8349-2.8083-4.0286-6.846-2.6487-10.8274l4.3909-10.181,2.0665-4.7962,29.6282-68.7465c.5893-1.7008,1.5528-3.2756,2.7824-4.6668Z"/>
        <g>
          <path class="r" d="M592.9243,320.3956s-7.9099,27.5498-22.75,41.3098c-.95.8801-1.9299,1.7-2.9299,2.46-.3999.3-.8.5901-1.2.8601-.3301.23-.6599.4399-1,.6499-4.6499,2.9199-9.8501,4.3501-15.5801,3.3501,0,0-18.75-14.4302-5.8599-46.6699,0-.0103,0-.02.01-.04.46-1.1501.96-2.3201,1.5-3.52.3-.6499.6099-1.3.9299-1.97,2.6001-5.3701,6.05-11.1902,10.54-17.4602,0,0,3.25,1.2803,7.9399,3.4502,7.21,3.3301,17.8,8.73,25.23,14.77,1.1401.9199,2.2,1.8599,3.1699,2.8101Z"/>
          <path class="g" d="M566.1121,310.8205s18.1364,9.4632,23.0929,14.7917"/>
        </g>
      </g>
      <path class="s" d="M532.1067,207.3982s54.8246-1.543,23.8538,50.7952l-23.8538-50.7952Z"/>
      <path class="s" d="M549.6799,210.5566s-56.8902-20.466-75.4467,16.9868c-10.9549,22.1104,5.7278,61.1034,32.7551,70.6062,25.7456,9.0523,13.451-77.6024,13.451-77.6024l29.2407-9.9906Z"/>
      <g>
        <path class="p" d="M551.741,484.1063c.0132.0494.0336.0968.0379.1411.8953,3.1949,1.4616,6.4327,2.053,9.4822l2.2149,10.6494,11.8018,56.7744,14.1271,67.9766.7614,3.6546,6.879,33.1034c.3515,1.9864.5565,3.9064.6273,5.7487.6088,15.3782-7.9602,25.373-17.2314,27.5358-.0725.0119-.1431.0308-.2136.0498-8.8177,1.9351-18.8021-.6743-24.6493-14.934-.9754-2.3941-1.8431-5.1197-2.5664-8.2094l-25.2204-94.3122-16.9101-63.2347-2.8551-10.6667c-.5198-2.6979-.8472-6.6808-.7348-11.1677.1691-6.4466,1.2506-13.9477,3.9784-20.2488.6885-1.6072,1.4952-3.1403,2.4175-4.5531,4.0788-6.2853,10.5051-10.2799,20.3264-8.7012,6.4367,1.0343,11.222,2.9356,14.8276,5.4031,1.7705,1.2122,3.2616,2.5674,4.5133,4.0172,2.9787,3.4302,4.6712,7.4251,5.8155,11.4914Z"/>
        <g>
          <path class="p" d="M602.4314,830.1589c.0503-.0099.1003-.0199.1504-.0306,7.342-1.5418,13.7654-10.4189,10.8885-24.3921l-22.1844-130.5629c-2.0042-8.9728-11.1223-25.6077-28.7285-22.1591-18.4611,3.6161-16.1003,23.7631-14.0962,32.7356l41.9042,123.7712c4.2123,16.1261,4.7714,22.0667,12.066,20.6379Z"/>
          <path class="h" d="M585.0371,663.3432s-.4884,14.4196-19.5604,19.2878"/>
          <g>
            <path class="c" d="M615.0708,807.6732c3.0714,1.6699,2.8351,3.2846,2.6652,5.5149-.1662,2.2323-2.3454,8.8071-.2091,16.4277,2.1362,7.6201,9.1453,19.8498,9.1453,19.8498l-8.5219,14.3014-55.304-30.0687s7.1071-11.08,12.1212-18.8787c5.0054-7.7985,11.5861-17.1343,12.1505-18.2077.5658-1.0682,1.8617-3.1243,3.7264-2.1104,1.8651,1.0141,24.2264,13.1719,24.2264,13.1719Z"/>
            <path class="q" d="M626.4178,849.0088s5.3875,8.446,7.1118,12.0422c1.7256,3.6015,1.3503,6.8304-.7113,10.6909l-21.5926-11.7399s6.8027-10.1836,15.1921-10.9932Z"/>
            <path class="q" d="M562.8462,833.6982s-2.9409,4.9353-3.5283,5.9211c-.5894.9892-.0435,2.0113,1.4571,2.8272l65.223,35.4617c1.5037.8176,2.7025.7441,3.2919-.2451l3.5283-5.9211-69.9721-38.0437Z"/>
            <g>
              <path class="q" d="M610.5649,830.8538l6.5038-1.3999c1.1633-.2584,2.2648.4509,2.4549,1.5728.1878,1.1275-.6046,2.2386-1.7756,2.4885l-6.5043,1.3997c-.4044.0896-.7986.0575-1.1508-.0632-.6636-.2275-1.1802-.7819-1.3021-1.5147-.1899-1.1224.6047-2.2386,1.774-2.4832Z"/>
              <path class="q" d="M609.561,822.3194l6.7499-.1081c1.1812-.0175,2.1094.8949,2.059,2.0441-.0385,1.1479-1.0315,2.1001-2.2127,2.1176l-6.7517.1134c-.2926.0008-.5673-.0491-.8192-.1483-.7557-.2978-1.2758-1.0322-1.2374-1.9008.0408-1.1529,1.0311-2.1003,2.2122-2.1178Z"/>
              <path class="q" d="M610.5574,813.2523l6.774,1.7159c1.1133.2845,1.7743,1.4212,1.4331,2.5429-.3363,1.1123-1.5244,1.7919-2.65,1.507l-6.7736-1.7157c-.1763-.0466-.3333-.1137-.4869-.1972-.8153-.4433-1.2355-1.4055-.9509-2.3483.3384-1.1169,1.5287-1.7895,2.6543-1.5046Z"/>
            </g>
            <path class="h" d="M562.8462,833.6982s-2.9409,4.9353-3.5283,5.9211c-.5894.9892-.0435,2.0113,1.4571,2.8272l65.223,35.4617c1.5037.8176,2.7025.7441,3.2919-.2451l3.5283-5.9211-69.9721-38.0437Z"/>
          </g>
        </g>
      </g>
      <g>
        <path class="p" d="M526.5966,492.9238c-.0074.0506-.0076.1022-.0212.1446-.4459,3.2879-1.2108,6.4846-1.8779,9.5184l-2.1924,10.654-11.6942,56.7967-14.0045,68.002-.7512,3.6567-6.8205,33.1155c-.4655,1.9629-1.0391,3.8065-1.7052,5.5257-5.543,14.3574-17.3744,20.1317-26.7426,18.4384-.0712-.0179-.1436-.0285-.2158-.0391-8.8617-1.7224-16.9911-8.0793-16.7003-23.4886.0546-2.5846.3396-5.4308.9016-8.5538l14.2714-96.5773,9.5684-64.7535,1.6116-10.924c.5934-2.6827,1.8732-6.4686,3.7567-10.5425,2.7131-5.8503,6.6822-12.3066,11.6862-17.0081,1.2697-1.2021,2.6185-2.2892,4.0257-3.2201,6.2379-4.1509,13.7217-5.2678,22.1104.0783,5.4979,3.5034,9.136,7.1473,11.4666,10.8429,1.1442,1.8152,1.9752,3.6508,2.5488,5.4782,1.3731,4.3305,1.3416,8.669.7785,12.8556Z"/>
        <g>
          <path class="p" d="M435.818,830.6828c.0501.0109.1.0215.1502.0316,7.3511,1.498,16.7695-4.1017,19.673-18.0694l31.4418-128.6477c1.7206-9.0314-.0486-27.9187-17.5779-31.7391-18.3805-4.0058-24.2075,15.4241-25.928,24.4552l-10.6459,130.238c-2.532,16.4738-4.3759,22.1486,2.8868,23.7314Z"/>
          <path class="h" d="M486.0413,670.6588s-6.1698,13.0421-25.6078,9.9432"/>
          <g>
            <path class="c" d="M456.3418,815.058c2.1567,2.7515,1.2991,4.1399.2582,6.1197-1.0382,1.9831-5.6474,7.1535-6.7102,14.9962-1.0627,7.8422.5185,21.8491.5185,21.8491l-13.4969,9.746-38.8335-49.5442s10.92-7.3505,18.617-12.5195c7.6888-5.1723,17.4336-11.1306,18.3776-11.892.9432-.756,2.9485-2.1291,4.2579-.4586,1.3097,1.6709,17.0113,21.7032,17.0113,21.7032Z"/>
            <path class="q" d="M450.3561,857.5028s1.594,9.8904,1.7498,13.8756c.155,3.9906-1.4707,6.8055-4.8949,9.531l-15.1619-19.3438s10.285-6.6485,18.307-4.0628Z"/>
            <path class="q" d="M398.078,818.2248s-4.6577,3.3633-5.5881,4.0351c-.9335.6741-.838,1.8289.2157,3.1733l45.7984,58.4301c1.0559,1.3471,2.1854,1.7553,3.119,1.0812.9303-.6718,5.5881-4.0351,5.5881-4.0351l-49.1331-62.6846Z"/>
            <g>
              <path class="q" d="M443.0081,834.5479l6.5254,1.2956c1.1703.2244,1.9,1.3125,1.6293,2.4177-.275,1.1095-1.4432,1.8149-2.6173,1.5796l-6.5257-1.296c-.4068-.0782-.7558-.2641-1.0312-.5146-.5189-.4721-.7731-1.186-.5942-1.907.271-1.1056,1.4433-1.8149,2.6137-1.5754Z"/>
              <path class="q" d="M445.4729,826.3158l6.2387,2.579c1.0912.4526,1.5811,1.6584,1.0789,2.6933-.4908,1.0384-1.7801,1.5184-2.8713,1.0658l-6.2425-2.5749c-.2689-.1154-.5013-.2701-.6931-.4612-.5755-.5732-.7615-1.4537-.3817-2.2358.4949-1.0421,1.7798-1.5188,2.8709-1.0662Z"/>
              <path class="q" d="M449.9852,818.3883l5.5371,4.2629c.909.7029,1.0647,2.0086.3064,2.9028-.75.8876-2.1102,1.0399-3.0304.3318l-5.5368-4.2625c-.1433-.1127-.2609-.2366-.3687-.3742-.5725-.7304-.5764-1.7803.0589-2.5329.7538-.891,2.1133-1.0361,3.0335-.3279Z"/>
            </g>
            <path class="h" d="M398.078,818.2248s-4.6577,3.3633-5.5881,4.0351c-.9335.6741-.838,1.8289.2157,3.1733l45.7984,58.4301c1.0559,1.3471,2.1854,1.7553,3.119,1.0812.9303-.6718,5.5881-4.0351,5.5881-4.0351l-49.1331-62.6846Z"/>
          </g>
        </g>
      </g>
      <path class="s" d="M564.4912,237.6215s-5.2299,51.806,7.9996,60.9674c0,0-55.5223,20.3727-109.8905-.4095,0,0,9.8586-16.9033,8.236-56.9345l93.6549-3.6233Z"/>
      <g>
        <path class="p" d="M437.8583,228.3584c-3.5223-3.9621-9.2607-6.4168-14.9153-5.9762l-.5359.0476c-7.2384.5573-11.7745,5.6728-10.9158,11.7039.0927.7407.2755,1.4803.5343,2.2279l10.001,24.2984,7.0275,17.0565,1.21,2.9476,13.2594,32.2023,3.5342,8.5837c4.7371,9.2263,11.9753,10.8526,19.8217,9.6526.996-.1501,1.9368-.4015,2.8186-.7287.1585-.068.3099-.1315.4616-.1945.4883-.2.9629-.437,1.4021-.6974.9395-.5363,1.7795-1.1799,2.5159-1.9058,2.8349-2.8083,4.0286-6.846,2.6487-10.8274l-4.3909-10.181-2.0665-4.7962-29.6282-68.7465c-.5893-1.7008-1.5528-3.2756-2.7824-4.6668Z"/>
        <g>
          <path class="r" d="M477.9179,297.616s-24.9756,9.8572-36.3466,21.0359c0,0,15.3759,53.5303,43.4651,48.6283,0,0,27.572-21.2165-7.1185-69.6643Z"/>
          <path class="g" d="M468.386,309.0729s-18.1364,9.4632-23.0929,14.7917"/>
        </g>
      </g>
      <g>
        <path class="p" d="M441.0039,162.3395l-26.4684,58.4663c-3.9149,7.1131-5.8953,18.4503,4.6131,22.4139,6.4387,2.4273,14.5149-.2827,18.3281-8.4257l23.9326-67.0601c2.5436-5.9334.259-10.8925-5.4512-12.8997-6.8717-2.4168-11.3937.015-14.9543,7.5052Z"/>
        <g>
          <path class="p" d="M444.8421,155.8904c3.7006-6.8439,10.1628-21.2113,12.6544-24.9643,2.5028-3.7527,6.8111-7.4795,8.9149-9.2413,2.0894-1.7674,6.4433-3.6546,8.4633-4.5637,2.0164-.9032,2.9311-.4832,3.369.755.4384,1.2455-.0158,2.8817-1.2801,4.3718,0,0,2.6234-.6823,3.9511-1.0124,1.3347-.3305,2.5085.4153,2.3961,2.3221-.1133,1.9107-2.0091,4.9773-4.4328,6.266,0,0,5.4136-1.0445,6.8241-1.1586,1.4164-.1215,1.9845.242,2.3437,1.537.3511,1.2932.3571,3.3822-1.2976,5.0576-1.6499,1.6721-5.6458,3.0839-5.6458,3.0839,0,0,6.9631-.2748,8.4132-.2065,1.4561.0715,1.8676.9228,1.5137,2.2423-.3624,1.3176-.8019,2.9662-3.0787,4.3517-2.2746,1.3837-4.2634.8124-5.0955,1.1976-.833.3785-3.5457,2.7103-4.9805,3.8788-3.129,5.9265-6.0689,6.8153-8.0179,8.7834-1.9406,1.9698-4.4234,3.7989-6.0015,7.001-1.8994,4.0977-8.7909,7.3703-15.0423,3.6857-6.2521-3.6914-6.661-8.1305-3.9708-13.3873Z"/>
          <g>
            <polyline class="e" points="475.9637 122.8072 471.0341 124.5335 462.5171 132.5184"/>
            <polyline class="d" points="477.7894 130.2822 473.7916 132.1054 466.8429 137.2555"/>
            <line class="d" x1="480.0187" y1="138.4271" x2="471.7424" y2="143.1069"/>
          </g>
        </g>
      </g>
      <path class="f" d="M491.3668,344.0953s4.6795,13.8689,1.5282,37.1549"/>
      <g>
        <path class="p" d="M499.8399,242.2189l-.9901,71.5734c-.1198,8.6566,6.3033,13.4999,14.2337,13.6096l11.5685.16c6.5718.0909,12.194-3.0948,14-9.1153.3719-1.2449.5796-2.61.6002-4.0954l.9901-71.5734c.1197-8.6515-6.3281-11.3792-14.2584-11.4889l-11.5685-.16c-7.9304-.1097-14.4557,2.4385-14.5754,11.09Z"/>
        <rect class="p" x="487.3367" y="255.8181" width="23.9486" height="16.6291" rx="8.0705" ry="8.0705" transform="translate(994.9207 535.1467) rotate(-179.2074)"/>
        <path class="m" d="M510.7983,245.6687c-.0037.2689-.0031.5462.0064.8195l.9547,35.9963c.3122,11.6905,10.6842,19.0311,22.8727,19.6419,1.4383.0721,3.3447.2104,4.7038-.0691.0833-.9666.1449-1.4394.1617-2.6578l.8121-58.7055c.0982-7.0961-6.1065-9.346-13.7314-9.4515l-9.3739-.1297c-3.9009,3.7826-6.3282,8.9219-6.4061,14.5559Z"/>
        <path class="p" d="M533.2813,299.3809l2.196-.0537c12.2101-.2988,19.281-12.1418,18.9823-24.3519l1.8504-32.0838c-.2987-12.2103-10.5334-21.956-22.7436-21.6571l-2.196.0537c-12.2101.2988-21.9557,10.5334-21.657,22.7435l.8243,33.6922c.2987,12.2103,10.5334,21.9559,22.7436,21.6571Z"/>
        <path class="j" d="M497.1913,259.0646c-2.6901-.0372-4.9011,2.1134-4.9383,4.8035s2.1134,4.9011,4.8035,4.9383"/>
        <ellipse class="s" cx="548.9989" cy="259.1257" rx="3.5716" ry="2.5248" transform="translate(282.3039 804.4878) rotate(-89.2074)"/>
        <ellipse class="s" cx="526.9517" cy="258.8208" rx="3.5716" ry="2.5248" transform="translate(260.8667 782.1419) rotate(-89.2074)"/>
        <polyline class="i" points="541.9452 263.4983 543.0424 271.0797 539.0725 271.8026"/>
        <path class="i" d="M539.5601,280.2194s-6.5189,1.3831-9.92-3.3438"/>
        <path class="k" d="M529.9594,243.2579s-4.7478-1.7975-8.9196,1.678"/>
        <path class="k" d="M552.4167,244.9867s-3.335-2.9264-7.8147-1.3604"/>
      </g>
      <g>
        <path class="p" d="M566.7244,379.5755c-.26,1.6799-.5999,3.3398-1,4.96-.8298,3.3999-1.8799,6.6101-2.8,9.3699-.22.6401-.4199,1.26-.6199,1.8401,0,.02-.01.05-.02.0601,0,.01-.01.03-.01.0398-.01,0-.01.0103-.01.02-2.0901,5.6501-3.3101,12.6802-4.1101,20.5303-.8699,8.7598-1.2,18.5398-1.5898,28.5698-.01.3101-.02.6101-.03.9102-.0701,2.2397-.0801,4.4697-.03,6.6699,0,.4399.01.8699.03,1.2998,0,.3301.01.6501.03.9702v.1899c.02.76.05,1.51.1001,2.26.2798,5.5901.8599,10.9299,1.5498,15.78.05.3301.1001.6599.1501.98v.02c.75,4.9399,1.6099,9.3398,2.3999,12.9399.29,1.3401.5801,2.5701.8601,3.6799.3499,1.4602.6799,2.7.9399,3.6902.48,1.77.78,2.7397.78,2.7397h-1.1599l-38.54.0601h-3.8801l-8.72.01-3.8999.01-37.9702.05h-4.2898l.8599-3.23,3.8301-14.3401.8101-3.0498.71-2.6702c1.6899-6.3298,2.8899-12.77,3.6199-19.25.02-.21.04-.3999.0601-.6099.1499-1.3501.28-2.7.3799-4.0601v-.01c.1602-2.21.2803-4.4199.3201-6.6401.01-.4199.03-.8398.04-1.25,0-.6099.01-1.2197.01-1.8298.01-3.29-.1099-6.5901-.3599-10l1.7598-16.1702.52-4.7598c.46-4.6001-.0498-9.1702-.8899-13.73-.53-2.9602-1.2-5.9102-1.8401-8.8701-.6099-2.8799-1.1899-5.77-1.5601-8.6699l-1.7397-13.3601-2.7002-20.79v-.01l-1.3398-10.3198-.2002-1.53c.6401-1.22,1.5701-2.4001,2.73-3.52,2.4902-2.47,6.0103-4.7,9.7402-6.6401.71-.3599,1.4199-.72,2.1399-1.0598.1101-.05.22-.1001.3201-.1401,1.27-.6201,2.5698-1.1899,3.8301-1.72.2197-.0999.45-.2.6699-.29,5.8198-2.4099,10.95-3.96,12.25-4.3298h.01c.21-.0701.3098-.0901.3098-.0901.3501.1799.7002.3601,1.04.54,20.6201,10.47,37.1899,1.2,39.01.1199h.01l.01-.01c.01-.01.02-.01.03-.02s.02-.0198.03-.0198c.0601-.0303.0801-.0503.0801-.0503l.01-.0098c.6699.3499,1.3298.72,1.96,1.1299.2.1299.4099.26.6199.3999.05.0303.1101.0701.1702.1101.1499.1001.2998.21.4399.3201.2.1399.4099.29.6001.4299.2197.1599.4299.3301.6399.49.1799.1401.3601.28.53.4302.1699.1399.3499.2898.53.4399.0798.0698.1599.1299.23.21.4199.3599.8298.75,1.23,1.1299.1899.1802.3799.3701.5598.5701.1101.1101.2202.22.3201.3301,2.78,2.8999,4.98,6.1699,6.6902,9.2698.2.3701.3999.7402.5999,1.1001.6599,1.29,1.25,2.53,1.76,3.6802.1401.3298.28.6499.3999.9697.1301.3101.2603.6201.3801.9102.1799.45.3401.8701.49,1.27.3901,1.0801.7,1.98.8999,2.6499.03.0801.05.1501.0801.23v.02c.05.1699.1001.3301.1401.46.1199.4001.1799.6101.1799.6101v.01c0,.01.01.02.02.04.1899.48,1.8098,4.53,3.6699,10.3699.1001.3.1899.6101.29.9202.6899,2.1699,1.3999,4.5698,2.0701,7.1099.04.1401.0798.29.1199.4399.3501,1.3401.7,2.73,1.03,4.1401.24,1.0698.48,2.1499.7,3.23.1401.6799.25,1.3799.3101,2.0801.3401,3,.1499,6.1399-.3301,9.24Z"/>
        <path class="l" d="M556.4574,454.8529c-.017-.3061-.0254-.6039-.0254-.9016.034-.0341.0679-.0677.102-.1018s.0596-.0598.0937-.0939l-.0511,1.0462-.017.2043-.0511,1.0545c-.0254-.4166-.0425-.8165-.051-1.2077Z"/>
        <path class="l" d="M564.8098,384.6824c-.4168,3.3341-1.0376,6.473-1.8882,9.2198-.2126.6466-.4168,1.2592-.6209,1.846,0,.017-.0085.0424-.017.0594,0,.0083-.0085.0257-.0085.0341-.0085.0083-.0085.017-.0085.0253-2.0923,5.6478-3.3171,12.6819-4.1081,20.5324-.876,8.7522-1.2078,18.5335-1.5905,28.5616-.1106,2.8835-.1956,5.1797-.1616,7.655,0,.4336.0085.8846.0255,1.3352-.5869.5956-1.2248,1.14-1.8883,1.6417-1.1397.8506-2.373,1.5566-3.6999,2.1006-2.6027,1.0632-5.2989,1.9137-8.0802,2.5774-7.1701,1.7264-14.8932,2.2285-22.9649,1.888-11.9247-.493-24.6064-2.8067-37.4328-5.7072l-7.5954-2.3731-.0596-.0166c.153-1.3697.2892-2.7219.3912-4.0659.1871-2.2369.3148-4.4396.3742-6.6341.0085-.417.0255-.8335.0341-1.2418.0085-.6126.017-1.2252.017-1.8373.0085-3.283-.1105-6.5918-.3657-10.0023l1.7606-16.1605.5188-4.7632c.4593-4.6016-.0511-9.1692-.8846-13.7363-.5357-2.9516-1.1992-5.9032-1.8371-8.8631-.6124-2.8831-1.1908-5.7753-1.5651-8.6754l-1.7351-13.3538-2.7048-20.7961v-.0083l-1.3438-10.3171c.6889-.4851,1.4205-.9781,2.1944-1.4631,4.1167-2.594,9.3476-5.1797,14.2467-7.3742,7.9613-3.5808,15.0378-6.1495,15.0378-6.1495.2892.1532.5784.3061.8675.451,18.1168,9.305,33.3672,3.6485,38.1303,1.3946,1.0121-.4764,1.5481-.7995,1.5481-.7995,1.497.7741,2.8833,1.6758,4.1846,2.6792.1871.1362.3657.2807.5444.4253,10.785,8.7269,14.723,24.0538,14.723,24.0538,0,0,1.6501,1.9985,3.6915,5.588.7739,2.4071,1.3948,5.1627,1.8627,8.1056,1.1993,7.5532,1.378,16.3906.4082,24.1643Z"/>
        <path class="l" d="M570.8345,365.2755c-.9199,1.3899-1.8999,2.74-2.9199,4.02-.28.3501-.5601.7-.8601,1.04-.53.6399-1.0801,1.2598-1.6501,1.8599-5.4897,5.8301-12.2197,9.5801-20.2598,8.7002,0,0-23.71-15.9402-4.7002-56.5503v-.0098c.4902-1.03,1-2.0701,1.54-3.1301.5701-1.1399,1.1899-2.3098,1.8401-3.49.1799.1401.3601.28.53.4302.1699.1399.3499.2898.53.4399.0798.0698.1599.1299.23.21.3-.6499.6099-1.3.9299-1.97.1799.1299.3799.26.55.3999.3999.29.78.6001,1.1699.9099.1201.1101.25.23.3899.3301.04.04.0901.0801.1301.1201.51.4399,1,.8799,1.47,1.3398.1802.1802.3801.3701.5601.5701.1099.1101.22.21.3101.3201,2.7798,2.8999,4.99,6.1899,6.7,9.2798.2.3801.3999.7302.5901,1.1001.6699,1.28,1.25,2.53,1.7598,3.6699.1501.3401.28.6602.4102.9702.1299.3298.26.6299.3799.9099.1702.46.3401.8899.49,1.28.24.6499.4302,1.23.6001,1.74.1199.3401.22.6399.3.9099.03.0901.0498.1501.0801.23v.02c.21.6899.3098,1.0801.3098,1.0801h.01c0,.01.01.02.02.03.3901.5701,5.02,7.46,7.5801,18.26.1099.46.22.9299.3198,1.4099.25,1.1501.48,2.3401.6602,3.5701Z"/>
        <path class="r" d="M567.9346,379.5255c-.1301,1.54-.3201,3.1201-.5801,4.73-.6001,3.6201-1.55,7.3799-2.96,11.26-3.01,8.29-4.7402,16.3601-5.6602,23.6599-2.29,18.1301.3401,31.48.3401,31.48l-2.5701,1.8901-.1001.0698-1.0898.8c-5.46,2.76-11.4199,4.3901-17.76,5.1702-2.5701.3198-5.2.5-7.8801.5601-1.6399.0398-3.3098.0398-4.9897-.0103-13.3401-.3899-27.7603-3.3098-42.1101-6.5498l-7.4202-2.5701v-.01l-.0498-.01-3.6602-1.27.8201-23.1301.46-13.1799c.52-5.1399-1.4199-15.48-3.6799-25.8999-2.01-9.3-4.28-18.6702-5.3201-24.48-.1599-.95-.3-1.79-.3899-2.53l2.05-28.48c2.76-3.1499,8.28-6.3999,14.0598-9.22,9.3701-4.5701,19.4102-8.02,19.4102-8.02.5801.3201,1.1699.6199,1.75.8999,8.8599,4.3401,17.01,5.1301,23.51,4.5601,4.3298-.3801,7.9399-1.3601,10.5598-2.3,2.4702-.8799,4.0601-1.73,4.55-2.02h.01c.01-.01.03-.01.04-.01.01-.01.02-.0198.03-.0198.0601-.0303.0801-.0503.0801-.0503.6699.3501,1.3298.7202,1.97,1.1201.2.1299.4099.26.6199.3999.2.1401.4102.2803.6101.4302.2.1399.4099.29.6001.4299.2197.1599.4299.3301.6399.49.1799.1401.3601.28.53.4302.1699.1399.3499.2898.53.4399.0798.0698.1599.1299.23.21.4199.3599.8298.75,1.23,1.1299.1899.1802.3799.3701.5598.5701.1101.1101.2202.22.3201.3301,2.78,2.8999,4.98,6.1699,6.6902,9.2698.2.3701.3999.7402.5999,1.1001.6599,1.29,1.25,2.53,1.76,3.6802.1401.3298.28.6499.3999.9697.1301.3101.2603.6201.3801.9102.1799.45.3401.8701.49,1.27.3901,1.0801.7,1.98.8999,2.6499.03.0801.05.1501.0801.23v.02c.05.1699.1001.3301.1401.46.1099.4001.1699.6201.1699.6201h.01c0,.01.01.02.02.04.3899.5698,5.03,7.45,7.5898,18.24.3,1.24.5601,2.54.79,3.8799.29,1.6401.52,3.3501.6702,5.1301.2798,3.21.3198,6.6299.02,10.23Z"/>
        <path class="f" d="M543.8817,322.1169s-18.8659,15.5246-46.2658.4867"/>
      </g>
      <path class="s" d="M543.5,217.1624s-28.0784,54.1153-55.7865,63.2032l8.1687-12.8554c2.0177-5.5225,1.7368-10.1309,2.3213-15.9813l-10.0552-23.3639,34.7474-19.3591,20.6044,8.3566Z"/>
      <path class="s" d="M537.9815,219.0585s14.8085,31.4006,21.1351,30.9279c0,0,6.5796-31.2643-21.1351-30.9279Z"/>
      <path class="l" d="M563.9451,509.0722v.0439s3.0286,40.5779,3.0286,40.5779c-2.4436,1.1475-12.1887,3.2425-30.4081,2.8429-.7385-.0162-18.7279-.4118-19.4514-.4479l-3.8414-.0439-.7621,8.447c-3.788.0444-10.6236-.5176-14.0727-.4844l-37.6128-2.0142,8.3503-60.7662-4.2897.003,4.6866-17.5715c.5471-1.4693,1.1379-2.9531,1.78-4.4517.7807-1.8348,1.6417-3.677,2.5684-5.5412,0,0,25.5823,6.7053,50.8019,6.7898l.2412-.0002c6.3798.0101,12.7373-.411,18.6414-1.4674,4.9979-.8951,9.674-2.2504,13.7724-4.1971,0,0,.3294.7086.842,2.2575.8788,2.6448,2.3074,7.7301,3.5921,15.8994v.0072c.257,1.6734.514,3.4637.7565,5.4001.1175.8841.2205,1.7976.3308,2.7402.4044,3.5659.7653,7.5485,1.0462,11.9768Z"/>
      <path class="n" d="M473.917,462.5373s55.3319,14.4888,83.4556,1.1269c0,0,9.2052,22.8347,9.5668,83.1027,0,0-28.7507,2.0907-48.7747,1.0483l-.3676,7.5538-56.5459-1.667,1.1107-27.1614s-6.8644-27.1299,11.5551-64.0032Z"/>
      <path class="f" d="M515.441,494.7886s3.8592,19.0505,1.6767,58.9861"/>
      <path class="f" d="M522.8601,504.9775s-4.1856,1.6447-4.5006,10.7423"/>
      <path class="f" d="M477.9179,297.616s16.78,25.9591,19.8051,42.5066"/>
      <g>
        <path class="p" d="M593.1873,163.2502l26.4684,58.4663c3.9149,7.1131,5.8953,18.4503-4.6131,22.4139-6.4387,2.4273-14.5149-.2827-18.3281-8.4257l-23.9326-67.0601c-2.5436-5.9334-.259-10.8925,5.4512-12.8997,6.8717-2.4168,11.3937.015,14.9543,7.5052Z"/>
        <g>
          <path class="p" d="M589.3491,156.8011c-3.7006-6.8439-10.1628-21.2113-12.6544-24.9643-2.5028-3.7527-6.8111-7.4795-8.9149-9.2413-2.0894-1.7674-6.4433-3.6546-8.4633-4.5637-2.0164-.9032-2.9311-.4832-3.369.755-.4384,1.2455.0158,2.8817,1.2801,4.3718,0,0-2.6234-.6823-3.9511-1.0124-1.3347-.3305-2.5085.4153-2.3961,2.3221.1133,1.9107,2.0091,4.9773,4.4328,6.266,0,0-5.4136-1.0445-6.8241-1.1586-1.4164-.1215-1.9845.242-2.3437,1.537-.3511,1.2932-.3571,3.3822,1.2976,5.0576,1.6499,1.6721,5.6458,3.0839,5.6458,3.0839,0,0-6.9631-.2748-8.4132-.2065-1.4561.0715-1.8676.9228-1.5137,2.2423.3624,1.3176.8019,2.9662,3.0787,4.3517,2.2746,1.3837,4.2634.8124,5.0955,1.1976.833.3785,3.5457,2.7103,4.9805,3.8788,3.129,5.9265,6.0689,6.8153,8.0179,8.7834,1.9406,1.9698,4.4234,3.7989,6.0015,7.001,1.8994,4.0977,8.7909,7.3703,15.0423,3.6857,6.2521-3.6914,6.661-8.1305,3.9708-13.3873Z"/>
          <g>
            <polyline class="e" points="558.2276 123.7179 563.1571 125.4442 571.6741 133.429"/>
            <polyline class="d" points="556.4018 131.1928 560.3996 133.0161 567.3483 138.1662"/>
            <line class="d" x1="554.1725" y1="139.3378" x2="562.4488" y2="144.0176"/>
          </g>
        </g>
      </g>
    </g>
  </g>
</svg>