<?xml version="1.0" encoding="UTF-8"?>
<svg xmlns="http://www.w3.org/2000/svg" viewBox="0 0 1024 1019.6314">
  <defs>
    <style>
      .b {
        fill: #d0d3dd;
      }

      .c {
        fill: #231f20;
      }

      .d {
        fill: #2f2d3a;
      }

      .e {
        fill: #8995be;
      }

      .f {
        stroke-width: 1.6222px;
      }

      .f, .g, .h, .i, .j, .k, .l, .m {
        fill: none;
        stroke-linecap: round;
        stroke-linejoin: round;
      }

      .f, .g, .h, .j, .k, .l {
        stroke: #060000;
      }

      .f, .g, .h, .j, .k, .l, .n, .o, .p {
        mix-blend-mode: overlay;
      }

      .f, .g, .h, .j, .k, .l, .o {
        opacity: .4;
      }

      .g {
        stroke-width: 1.6313px;
      }

      .h {
        stroke-width: 1.4305px;
      }

      .q {
        isolation: isolate;
      }

      .r {
        fill: #4e4c4d;
      }

      .i {
        stroke: #231f20;
        stroke-width: 7.9171px;
      }

      .s {
        fill: #bf886f;
      }

      .t {
        fill: #fff;
      }

      .j {
        stroke-width: 1.9317px;
      }

      .k {
        stroke-width: 1.8863px;
      }

      .u {
        fill: #af9bd6;
      }

      .l {
        stroke-width: 2.166px;
      }

      .n {
        opacity: .2;
      }

      .p {
        opacity: .1;
      }

      .v {
        fill: #382743;
      }

      .m {
        stroke: #382743;
        stroke-width: 2.7075px;
      }
    </style>
  </defs>
  <g class="q">
    <g id="a" data-name="Brisk Walk">
      <path class="b" d="M384.0895,848.4822c-48.448-7.3619-62.6974-8.7297-92.084-6.7516-32.0285,2.156-67.7443,33.3237-58.111,52.5558,4.0808,8.147,1.5944,25.999,90.3789,28.3046,84.3581,2.1907,96.7862,16.623,129.4444,20.9956,47.0551,6.3003,116.3065-26.877,152.4159-23.3184,32.6429,3.2171,122.8521,10.8398,112.2114-29.6989-6.147-23.4186-56.416-33.398-80.9164-36.0473-50.4317-5.4534-44.9681-19.111-120.9194-22.2974-42.6599-1.7898-49.021,28.9303-132.4199,16.2576Z"/>
      <path class="v" d="M535.6014,139.5816s-6.1488,60.9087,9.4052,71.6798c0,0-65.278,23.9523-129.1991-.4815,0,0,11.5908-19.8734,9.6831-66.9384l110.1108-4.2599Z"/>
      <path class="v" d="M497.5267,104.0479s64.4577-1.8141,28.0451,59.7203l-28.0451-59.7203Z"/>
      <path class="v" d="M518.1876,107.7612s-66.8863-24.062-88.7033,19.9715c-12.8798,25.9953,6.7342,71.8397,38.5104,83.0123,30.2693,10.6429,15.8144-91.2378,15.8144-91.2378l34.3785-11.7461Z"/>
      <path class="s" d="M531.1977,427.3352c.0089.0594.0263.1176.0254.1699.6195,3.8515.849,7.7092,1.133,11.3502l1.1664,12.7352,6.2109,67.8936,7.4326,81.2892.4018,4.3706,3.6188,39.5863c.1456,2.3673.1289,4.6373-.0343,6.7988-1.3407,18.0447-12.6837,28.5764-23.802,29.8659-.0862.0042-.1712.0169-.2562.0296-10.5583,1.084-21.873-3.2962-26.8007-20.7334-.82-2.9267-1.4699-6.2263-1.9025-9.932l-16.877-113.5322-11.3161-76.1214-1.9119-12.8408c-.2472-3.2208-.0982-7.917.6317-13.1431,1.0576-7.5078,3.3218-16.1257,7.3488-23.1221,1.0187-1.7855,2.1656-3.4687,3.4314-4.9959,5.6031-6.7977,13.6427-10.6064,24.9045-7.452,7.3808,2.067,12.7169,4.9264,16.5994,8.2897,1.9064,1.6522,3.4674,3.4341,4.7361,5.2947,3.0217,4.4043,4.4659,9.2966,5.26,14.1992Z"/>
      <path class="s" d="M544.2392,838.3268c.0601-.0048.1198-.0099.1798-.0156,8.782-.8214,17.4697-10.3338,15.9734-27.04l-8.4941-155.4721c-1.1439-10.7486-9.5755-31.3966-30.6016-29.7173-22.0471,1.7609-21.9775,25.6098-20.8336,36.3581l22.677,152.2412c2.7689,19.3992,12.3877,24.3414,21.0992,23.6456Z"/>
      <path class="f" d="M546.1775,641.1465s-2.4944,16.7785-25.4221,19.9205"/>
      <path class="d" d="M556.3731,814.8926c3.824-.5319,4.6735,1.0575,5.9859,3.15,1.3171,2.0919,3.6952,9.362,10.5929,14.7295,6.8973,5.3671,21.1475,11.6315,21.1475,11.6315l1.8137,18.295-68.854,9.5773s-.9568-14.5052-1.6199-24.7225c-.6706-10.2114-.9507-22.8219-1.1536-24.1457-.1983-1.3201-.3962-3.9967,1.9254-4.3197,2.3221-.323,30.1621-4.1954,30.1621-4.1954Z"/>
      <path class="t" d="M593.5739,844.1648s10.3272,3.9675,14.2184,6.0306c3.8959,2.0669,5.681,5.1813,6.3827,9.9631l-26.883,3.7393s-.6391-13.5093,6.2818-19.733Z"/>
      <path class="t" d="M527.0592,872.2759s.6259,6.3135.7509,7.5746c.1255,1.2654,1.281,1.8151,3.1493,1.5553l81.2033-11.295c1.8722-.2604,2.8887-1.1122,2.7633-2.3777l-.7509-7.5746-87.1159,12.1174Z"/>
      <path class="t" d="M567.5801,838.4398l4.8587-5.5108c.8637-.9928,2.3076-1.0855,3.2126-.2137.9066.8783.9317,2.3852.0555,3.3755l-4.8592,5.511c-.3005.3449-.6717.575-1.0637.6989-.7387.2334-1.5614.0798-2.1504-.4911-.9051-.8724-.9317-2.3852-.0534-3.3697Z"/>
      <path class="t" d="M561.0887,831.5176l5.9248-4.5249c1.0378-.7906,2.4609-.5891,3.1701.4648.719,1.0449.4617,2.5423-.5761,3.3328l-5.923,4.5307c-.2594.1927-.5361.3286-.825.4057-.8667.2313-1.8105-.0797-2.3464-.8765-.7202-1.0509-.4622-2.5421.5755-3.3327Z"/>
      <path class="t" d="M556.0246,822.8098l7.1431-2.9204c1.1755-.4777,2.5085.0983,2.9414,1.3185.4311,1.2087-.1784,2.5919-1.3651,3.0774l-7.1425,2.9203c-.1871.0743-.3707.1177-.5619.1443-1.0151.1412-2.0196-.4379-2.3855-1.462-.4323-1.2141.1837-2.5926,1.3705-3.0781Z"/>
      <path class="s" d="M555.99,391.3742c-1.76,4.71-6.31,8.8301-12.01,10.3599l-.55.1401c-4.51,1.2202-8.76.54-11.75-1.5-.6-3.7197-2.52-17.8301-.56-36.3101.1-.8799.2-1.7598.31-2.6597,1.12-9.0801,3.2-19.1104,6.82-29.4204.06-.1899.13-.3896.2-.5796.57-1.5903,1.07-3.1704,1.52-4.73.17-.4805.34-.9702.52-1.4502,1.78-4.8901,2.88-9.6299,3.46-14.1699.22-1.7803.37-3.54.45-5.2603.23-5.6001-.3-10.8296-1.26-15.5898.21-.0103.43-.02.64-.02.18.0098.36.0098.53.02.56.0103,1.13.0601,1.66.1401,1.15.1597,2.2401.4399,3.27.8301,3.95,1.5298,6.83,4.6997,7.17,8.6899l.04,10.5098.01,4.9502.2599,70.9697c.15,1.71-.12,3.4302-.73,5.0801Z"/>
      <path class="s" d="M544.4,305.7941c-.08,1.7202-.23,3.48-.45,5.2603-.58,4.54-1.68,9.2798-3.46,14.1699-.18.48-.35.9697-.52,1.4502-.45,1.5596-.95,3.1396-1.52,4.73-.07.1899-.14.3896-.2.5796-3.62,10.3101-5.7,20.3403-6.82,29.4204-.11.8999-.21,1.7798-.31,2.6597-1.96,18.48-.04,32.5903.56,36.3101-1.84-1.25-3.21-3.0098-3.86-5.1499-.22-.6899-.35-1.4102-.42-2.1602l-.04-1.6396-.49-22.4204-.02-.8599-.38-17.5-.0699-3.02-.72-33.0298-.2-8.8101c.58-7.96,4.9-12.02,10.9-14.1299.47-.1602.96-.3203,1.45-.4604.93-.2695,1.9-.5,2.89-.6899.35-.0698.69-.1299,1.03-.1699.47-.0698.93-.1099,1.39-.1299.96,4.7603,1.49,9.9897,1.26,15.5898Z"/>
      <path class="u" d="M557.9586,307.8192s-30.4228,8.4265-49.0102,5.982c0,0-23.4592-61.1343,6.3787-76.4164,0,0,40.9011.3987,42.6315,70.4344Z"/>
      <path class="g" d="M556.8381,302.0811s-10.4771,4.4074-19.041,4.4022"/>
      <path class="s" d="M603.1785,423.585l-61.4737-19.6761c-7.9604-1.8589-17.6965-8.1014-13.3388-18.9082,2.671-6.6207,10.2666-10.9825,18.9163-8.3397l66.0564,27.5164c6.1398,2.1066,8.2152,7.2632,5.7392,13.0351-2.9788,6.9469-7.9063,8.7627-15.8993,6.3726Z"/>
      <path class="s" d="M420.2312,434.2014c-.0083.0595-.0251.1179-.0237.1701-.5815,3.8574-.773,7.7171-1.0211,11.3608l-1.0408,12.746-5.5417,67.9515-6.6313,81.3585-.3587,4.3744-3.2286,39.62c-.1223,2.3686-.0832,4.6384.1013,6.7982,1.5184,18.0306,12.9647,28.4501,24.0951,29.63.0863.0034.1714.0152.2565.0271,10.5684.9799,21.8394-3.5116,26.5951-20.9964.7911-2.9346,1.4085-6.2405,1.8046-9.9502l15.7576-113.693,10.5656-76.2292,1.7853-12.8591c.2155-3.2231.0202-7.9176-.7612-13.1363-1.1315-7.497-3.4805-16.0922-7.5763-23.0486-1.0362-1.7754-2.1997-3.4472-3.4805-4.9619-5.6698-6.7422-13.7466-10.4715-24.9767-7.2063-7.36,2.1396-12.6678,5.0514-16.5169,8.4529-1.89,1.6709-3.4334,3.4681-4.6837,5.3411-2.9782,4.4339-4.3741,9.3401-5.1198,14.2503Z"/>
      <path class="s" d="M411.2397,845.3016c-.0601-.0042-.1199-.0087-.18-.0139-8.7897-.7348-17.5707-10.1612-16.239-26.8813l6.9619-155.5482c1.038-10.7594,9.2657-31.4894,30.3074-30.0173,22.0634,1.5436,22.2288,25.392,21.1908,36.1511l-21.1759,152.4573c-2.5776,19.4255-12.1473,24.4623-20.8652,23.8524Z"/>
      <path class="f" d="M447.8434,646.7354s-2.6596,16.7531-25.6172,19.6691"/>
      <path class="d" d="M427.5977,817.609c3.7902.7349,4.0794,2.5137,4.6435,4.9184.5688,2.4056.4649,10.0541,5.2532,17.3659,4.788,7.3112,16.2423,17.8521,16.2423,17.8521l-4.2075,17.8967-68.246-13.2322s3.7912-14.0336,6.472-23.9153c2.6717-9.8785,6.4898-21.9003,6.7264-23.2186.2398-1.3132.9192-3.9097,3.2203-3.4636,2.3016.4463,29.8957,5.7965,29.8957,5.7965Z"/>
      <path class="t" d="M453.3168,857.3493s8.4864,7.0975,11.5,10.3094c3.0168,3.217,3.6974,6.7416,2.8131,11.493l-26.6456-5.1663s3.7694-12.9885,12.3326-16.6361Z"/>
      <path class="t" d="M381.2832,862.41s-1.452,6.1761-1.742,7.4097c-.291,1.2379.6243,2.1321,2.4761,2.4912l80.4862,15.6055c1.8556.3598,3.0933-.117,3.3843-1.3549.29-1.2336,1.742-7.4097,1.742-7.4097l-86.3465-16.7417Z"/>
      <path class="t" d="M430.5769,843.5164l6.3812-3.6408c1.1387-.6596,2.5348-.2799,3.1087.838.5734,1.1246.1093,2.5584-1.0404,3.2116l-6.3818,3.6408c-.396.2291-.8217.3266-1.2327.3168-.7745-.0184-1.5031-.43-1.8756-1.1609-.5739-1.1185-.1092-2.5584,1.0405-3.2055Z"/>
      <path class="t" d="M426.6764,834.8653l7.0707-2.3628c1.2378-.412,2.5191.2395,2.8489,1.4662.3419,1.2214-.3863,2.5548-1.6242,2.9668l-7.0709,2.3689c-.3078.0984-.6136.1374-.9119.1168-.8949-.0618-1.6872-.6617-1.9362-1.589-.3412-1.2275.3858-2.5548,1.6236-2.9668Z"/>
      <path class="t" d="M424.7046,824.9869l7.7038-.4503c1.2669-.0714,2.3416.9052,2.3561,2.1999.0165,1.2832-1.008,2.3945-2.288,2.4696l-7.7033.4504c-.2011.0097-.3888-.0086-.5783-.0454-1.0061-.1951-1.7691-1.0682-1.7836-2.1557-.0159-1.2887,1.0133-2.3935,2.2933-2.4685Z"/>
      <path class="g" d="M449.6284,264.7637s5.5017,16.3058,1.7967,43.6833"/>
      <path class="s" d="M459.5903,144.9868l-1.1641,84.1494c-.1408,10.1777,7.4108,15.8719,16.7347,16.0009l13.6011.1882c7.7265.1069,14.3366-3.6386,16.4599-10.7169.4373-1.4637.6814-3.0685.7056-4.815l1.1641-84.1494c.1407-10.1717-7.44-13.3786-16.7638-13.5076l-13.6011-.1882c-9.3239-.129-16.9957,2.8669-17.1364,13.0386Z"/>
      <rect class="s" x="444.8903" y="160.9754" width="28.1565" height="19.551" rx="9.4886" ry="9.4886" transform="translate(915.5312 347.8342) rotate(-179.2074)"/>
      <path class="o" d="M472.4742,149.0428c-.0044.3161-.0037.6422.0075.9635l1.1224,42.3211c.367,13.7446,12.5614,22.375,26.8916,23.0932,1.691.0848,3.9324.2474,5.5303-.0813.0979-1.1364.1704-1.6923.1902-3.1248l.9548-69.0205c.1154-8.3429-7.1794-10.9882-16.1441-11.1122l-11.021-.1525c-4.5863,4.4472-7.4401,10.4895-7.5317,17.1135Z"/>
      <path class="s" d="M498.9077,212.1926l2.5818-.0632c14.3555-.3513,22.6688-14.2752,22.3176-28.6307l2.1755-37.7212c-.3512-14.3557-12.3842-25.8138-26.7399-25.4624l-2.5818.0632c-14.3555.3514-25.8135,12.3842-25.4623,26.7397l.9692,39.6122c.3512,14.3557,12.3842,25.8138,26.7399,25.4624Z"/>
      <path class="h" d="M456.4764,164.7924c-3.1628-.0438-5.7622,2.4847-5.806,5.6475s2.4847,5.7622,5.6475,5.806"/>
      <ellipse class="v" cx="517.3869" cy="164.8643" rx="4.1992" ry="2.9684" transform="translate(345.3817 679.9213) rotate(-89.2074)"/>
      <ellipse class="v" cx="491.4659" cy="164.5057" rx="4.1992" ry="2.9684" transform="translate(320.1777 653.649) rotate(-89.2074)"/>
      <polyline class="l" points="509.0939 170.0052 510.3839 178.9187 505.7165 179.7686"/>
      <path class="l" d="M506.2897,189.6642s-7.6643,1.6261-11.663-3.9313"/>
      <path class="m" d="M495.0021,146.2084s-5.5821-2.1134-10.4868,1.9728"/>
      <path class="m" d="M521.4053,148.2409s-3.921-3.4406-9.1878-1.5995"/>
      <path class="s" d="M538.2259,306.4823c-.3099,1.9702-.71,3.9199-1.1799,5.8301-.97,3.9902-2.2,7.77-3.29,11.0098-.25.7603-.49,1.4805-.73,2.1704,0,.02-.01.0498-.02.0698,0,.0098-.01.0303-.01.04-.01.0098-.01.02-.01.0298-2.46,6.6401-3.8999,14.9102-4.83,24.1401-1.0299,10.29-1.42,21.79-1.87,33.5801-.12,3-.14,5.98-.0801,8.9199.01.5103.02,1.02.04,1.5303,0,.3799.01.7598.03,1.1299v.23c.03.8901.0701,1.7798.12,2.6597.33,6.5703,1.01,12.8501,1.83,18.5503.0601.3901.1101.77.17,1.1499v.02c.88,5.8101,1.89,10.9902,2.8199,15.2202.3401,1.5698.6901,3.02,1.01,4.3198.42,1.7202.8,3.1802,1.1101,4.3398.5599,2.0801.9199,3.2202.9199,3.2202h-1.37l-45.3099.0698-4.5601.0103-10.25.0098-4.59.0103-44.64.0601h-5.04l1.01-3.8003,4.5-16.8599.95-3.5801.8401-3.1401c1.98-7.4497,3.3999-15.02,4.25-22.6396.03-.2402.05-.4702.0701-.7104.1799-1.5898.3298-3.1797.45-4.7798v-.0098c.1899-2.6001.33-5.2002.3799-7.8101.02-.48.03-.9702.04-1.46.01-.7202.02-1.4404.02-2.1602.01-3.8599-.1299-7.75-.4299-11.7598l2.0699-19,.61-5.6001c.54-5.4102-.0601-10.7803-1.04-16.1499-.6299-3.4702-1.4099-6.9404-2.1599-10.4204-.72-3.3896-1.4-6.79-1.8401-10.1997l-2.0399-15.7002-3.1801-24.4502v-.0098l-1.58-12.1299-.23-1.8003c.75-1.4297,1.85-2.8198,3.21-4.1396,2.9301-2.8999,7.0699-5.52,11.4501-7.8003.83-.4297,1.6699-.8496,2.52-1.25.1299-.0601.25-.1201.3699-.1699,1.5-.7197,3.02-1.3999,4.5-2.02.27-.1201.53-.23.79-.3398,6.8501-2.8301,12.88-4.6499,14.41-5.0903.25-.0796.37-.1099.37-.1099.4099.2202.8201.4302,1.23.6401,24.27,12.3301,43.79,1.3799,45.87.1401l.01-.0103c.0299-.02.0499-.0298.0699-.0498.0701-.04.1001-.0601.1001-.0601l.01-.0103c.7899.4102,1.5599.8501,2.2999,1.3301.3099.1899.62.3901.9301.6001.1799.1201.35.2402.52.3701.24.1699.48.3398.71.5098.47.3501.9199.71,1.37,1.0801.2001.1699.41.3403.62.52.59.5103,1.1699,1.04,1.72,1.5801.22.21.45.4302.66.6602.13.1299.26.2598.37.3896,3.27,3.4102,5.86,7.2603,7.87,10.9004.24.4399.47.8696.7001,1.2998.7799,1.5098,1.47,2.9697,2.0699,4.3198.17.3901.33.77.48,1.1401s.2999.73.4401,1.0698c.21.5303.3999,1.0303.58,1.5.46,1.2603.8199,2.3203,1.0599,3.1104.03.1001.0601.1797.0901.27v.02c.26.8101.3799,1.2598.3799,1.2598v.02c0,.0098.01.02.02.04.22.5601,2.1301,5.3301,4.3201,12.1899.9099,2.8398,1.86,6.0298,2.77,9.4399.05.1699.09.3501.1399.52.73,2.7803,1.4301,5.7002,2.03,8.6699.8601,4.23.6801,8.8101-.02,13.3101Z"/>
      <path class="n" d="M526.156,394.9823c-.02-.3599-.0299-.71-.0299-1.0601.0399-.04.0798-.0796.1199-.1196s.0701-.0703.1101-.1104l-.0601,1.23-.02.2402-.0601,1.2397c-.0299-.4897-.0499-.96-.0599-1.4199Z"/>
      <path class="n" d="M535.9759,312.4823c-.49,3.9199-1.22,7.6104-2.22,10.8398-.25.7603-.49,1.4805-.73,2.1704,0,.02-.01.0498-.02.0698,0,.0098-.01.0303-.01.04-.01.0098-.01.02-.01.0298-2.46,6.6401-3.8999,14.9102-4.83,24.1401-1.0299,10.29-1.42,21.79-1.87,33.5801-.13,3.3901-.23,6.0898-.1899,9,0,.5098.01,1.04.03,1.5698-.6901.7002-1.4401,1.3403-2.2201,1.9302-1.34,1-2.7899,1.8301-4.35,2.4697-3.0601,1.25-6.23,2.25-9.5,3.0303-8.4299,2.0298-17.51,2.6201-27,2.2197-14.02-.5796-28.9299-3.2998-44.01-6.71l-8.9299-2.79-.0701-.0195c.1799-1.6104.34-3.2002.46-4.7803.22-2.6299.3701-5.2197.4399-7.7998.01-.4902.03-.98.04-1.46.01-.7202.02-1.4404.02-2.1602.01-3.8599-.1299-7.75-.4299-11.7598l2.0699-19,.61-5.6001c.54-5.4102-.0601-10.7803-1.04-16.1499-.6299-3.4702-1.4099-6.9404-2.1599-10.4204-.72-3.3896-1.4-6.79-1.8401-10.1997l-2.0399-15.7002-3.1801-24.4502v-.0098l-1.58-12.1299c.8099-.5703,1.67-1.1499,2.58-1.7202,4.8401-3.0498,10.99-6.0898,16.75-8.6699,9.3601-4.21,17.6801-7.23,17.6801-7.23.34.1802.6801.3599,1.0199.5303,21.3,10.9399,39.2301,4.2896,44.8301,1.6396,1.1899-.5601,1.8201-.9399,1.8201-.9399,1.76.9102,3.3899,1.9702,4.9199,3.1499.22.1602.4299.3301.64.5,12.6801,10.2603,17.3099,28.2803,17.3099,28.2803,0,0,1.9401,2.3496,4.3401,6.5698.9099,2.8301,1.6399,6.0698,2.1899,9.5298,1.41,8.8804,1.6201,19.2705.48,28.4102Z"/>
      <path class="p" d="M544.4,305.7941c-.08,1.7202-.23,3.48-.45,5.2603-.58,4.54-1.68,9.2798-3.46,14.1699-.18.48-.35.9697-.52,1.4502-.62,1.7798-1.1899,3.5498-1.72,5.3096-3.62,10.3101-5.7,20.3403-6.82,29.4204-.11.8999-.21,1.7798-.31,2.6597l-2.28-11.0298c-2.7,21.3198.4,37.02.4,37.02l-1.88,1.3701-1.15.8496c.0099.5103.02,1.02.04,1.5303.04-.04.07-.0703.11-.1104l-.06,1.2305c-.01,0-.02.0098-.02.0098-.04.0098-.08.0303-.1201.0498-.74.3003-1.49.6001-2.25.8701-5.83,2.1401-12.08,3.3701-18.64,3.8901-3.45.2798-6.99.3701-10.6.29-1.77-.04-3.56-.1099-5.36-.23-14.4-.8901-29.73-4.04-45.02-7.48l-13.07-4.5503,1.4301-40.6797.0699-2c.34-3.3604-.21-8.6001-1.22-14.6899-.8-4.8101-1.88-10.1504-3.04-15.52-2.23-10.2803-4.7401-20.6602-6.06-27.6001-.32-1.6899-.57-3.1699-.73-4.3999l1.33-18.3101v-.0103l1-13.8496.1-1.3203c2.81-3.21,8.07-6.5098,13.84-9.4897,7.33-3.79,15.49-7.0601,20.56-8.98.55-.2002,1.07-.4004,1.54-.5703.15-.0601.3-.1099.45-.1699.32-.1201.62-.2197.89-.3198,1.3-.4702,2.05-.73,2.05-.73,4.94,2.6499,9.52,4.3301,13.71,5.2998,4.05.9502,7.73,1.2402,11,1.1201,5.23-.1899,9.41-1.4302,12.41-2.71,2.67-1.1401,4.39-2.3101,5.06-2.8101.21-.1499.32-.2402.32-.2402.03.02.06.0303.09.0503,3.72,1.9297,7,4.5898,9.86,7.5698,10.07,10.48,14.83,24.8101,14.83,24.8101,0,0,.28.3398.77,1.0098,1.9,2.6001,6.92,10.1001,10.13,20.8203.58,1.9497,1.1,4,1.53,6.1499.96,4.7603,1.49,9.9897,1.26,15.5898Z"/>
      <path class="u" d="M542.84,311.1242c-.16,1.9502-.39,3.96-.72,6-.5,3.1001-1.2,6.2803-2.15,9.5503-.45,1.5596-.95,3.1396-1.52,4.73-.07.1899-.14.3896-.2.5796-3.62,10.3101-5.7,20.3403-6.82,29.4204-.11.8999-.21,1.7798-.31,2.6597-1.96,18.48-.04,32.5903.56,36.3101.11.6401.17.9702.17.9702l-3.2,2.3896-.11.0903-1.35,1.0098c-.1.0503-.19.1001-.29.1401-6.7,3.4199-13.9901,5.4399-21.76,6.4199-3.18.4102-6.44.6401-9.77.71-2.03.0503-4.1.0503-6.19-.02-16.55-.48-34.43-4.1899-52.25-8.29l-7.71-2.7397-1.49-.5303v-.0098l-.06-.0103-4.54-1.6196,1.01-29.3301.58-16.71c.64-6.5303-1.7599-19.6401-4.56-32.8604-2.49-11.79-5.3199-23.6699-6.61-31.0498-.2-1.2002-.37-2.27-.49-3.2002l2.56-36.1299c3.42-3.9897,10.27-8.1099,17.43-11.6899,11.63-5.7998,24.08-10.1699,24.08-10.1699.73.3999,1.46.7798,2.17,1.1299.7.3501,1.39.6802,2.08.9902,5.56,2.5298,10.86,3.9399,15.76,4.5698,4.09.54,7.9.5498,11.34.2402,5.37-.4902,9.85-1.7305,13.1-2.9302,1.69-.6201,3.05-1.2202,4.03-1.71.15-.0601.28-.1299.41-.1899.59-.3003,1-.52,1.21-.6504.04-.0098.07-.0396.09-.0498.07-.04.1-.0601.1-.0601.84.4399,1.65.9199,2.44,1.4199.52.3403,1.04.6802,1.53,1.0503.25.1797.51.3701.75.5498.5.3799.97.77,1.45,1.1602.21.1899.43.3701.65.5698.62.5503,1.23,1.1201,1.82,1.7002.23.23.47.46.69.71.14.1401.28.2798.39.4199,3.45,3.6802,6.19,7.8398,8.31,11.7603.25.48.49.9399.74,1.3999.82,1.6299,1.55,3.21,2.18,4.6597.18.4302.35.8301.51,1.2305.15.3999.31.7896.46,1.1597.22.5698.42,1.1099.61,1.6201.49,1.3599.87,2.5,1.12,3.3501.03.1099.06.1997.1.29v.02c.14.48.25.8496.31,1.0796.05.1904.08.29.08.29l.01.02c0,.0103.01.02.02.04.48.7202,6.23,9.4502,9.41,23.1401.27,1.1699.53,2.3701.75,3.6099,1.15,6.1602,1.71,13.1602,1.09,20.79Z"/>
      <path class="g" d="M511.3706,238.9235s-22.1808,18.2524-54.3951.5723"/>
      <path class="s" d="M422.2801,390.2186l13.6456-95.2027c.5241-10.7876-5.9296-15.9026-14.6432-18.7328-8.2486-2.6849-16.9183,1.0685-18.3992,8.1636l-11.7717,94.4928c-1.4849,7.1015,3.7586,15.2905,11.8971,18.5683l.5777.2286c8.6523,3.485,17.1663.0568,18.6938-7.5177Z"/>
      <path class="p" d="M400.9225,314.2523s30.8731,6.6889,49.292,2.8697c-5.1259,16.8489,19.5829-65.3857-10.8346-79.13,0,0-40.8213,3.2183-38.4573,76.2603Z"/>
      <path class="u" d="M396.203,310.9387s30.8875,6.5203,49.2871,2.9259c0,0,19.6162-62.4736-11.1134-75.8726,0,0-40.7974,2.9388-38.1737,72.9467Z"/>
      <path class="g" d="M396.9648,305.142s10.7306,3.748,19.2777,3.2108"/>
      <path class="v" d="M510.9218,115.5277s-33.012,63.6238-65.5887,74.3085l9.604-15.1142c2.3722-6.4928,2.0419-11.911,2.7291-18.7893l-11.8219-27.4692,40.8527-22.7607,24.2247,9.8249Z"/>
      <path class="v" d="M504.4338,117.7569s17.4105,36.918,24.8487,36.3622c0,0,7.7357-36.7577-24.8487-36.3622Z"/>
      <path class="n" d="M534.9594,458.7283v.0516s3.5607,47.7077,3.5607,47.7077c-2.8729,1.3492-14.3303,3.8122-35.751,3.3424-.8683-.019-22.0185-.4842-22.8691-.5266l-4.5164-.0516-.896,9.9313c-4.4536.0522-12.4903-.6085-16.5454-.5696l-44.2217-2.3681,9.8175-71.4433-5.0435.0036,5.51-20.6589c.6432-1.7274,1.3379-3.472,2.0927-5.2339.9178-2.1572,1.9301-4.3231,3.0197-6.5149,0,0,30.0773,7.8834,59.7282,7.9828l.2835-.0002c7.5008.0119,14.9754-.4832,21.9168-1.7253,5.8761-1.0523,11.3738-2.6458,16.1923-4.9346,0,0,.3872.8331.99,2.6542,1.0332,3.1095,2.7128,9.0883,4.2232,18.6931v.0085c.3021,1.9674.6043,4.0722.8895,6.3489.1382,1.0395.2592,2.1134.3889,3.2217.4755,4.1924.8998,8.8748,1.23,14.0812Z"/>
      <path class="e" d="M429.1126,404.0168s65.0541,17.0347,98.1194,1.3249c0,0,10.8227,26.847,11.2477,97.7046,0,0-33.8024,2.458-57.3448,1.2325l-.4322,8.881-66.4814-1.9599,1.3059-31.9339s-8.0706-31.8968,13.5854-75.2491Z"/>
      <path class="g" d="M477.9326,441.935s4.5373,22.3979,1.9713,69.3505"/>
      <path class="g" d="M486.6553,453.9142s-4.9211,1.9336-5.2914,12.6298"/>
      <path class="s" d="M459.4531,402.02l-44.2048-33.4206c-5.198-4.8503-14.5867-7.7723-20.7719,3.8514-3.7887,7.1222-3.5149,16.4039,2.6089,21.2018l52.3678,31.078c4.5231,3.2307,9.4464.9516,12.6794-5.3734,3.8918-7.6116,2.9398-12.864-2.6794-17.3371Z"/>
      <g>
        <ellipse class="c" cx="511.9027" cy="407.7938" rx="17.8684" ry="12.4246" transform="translate(18.9627 838.3172) rotate(-79.6749)"/>
        <polyline class="c" points="510.6688 425.72 494.0819 423.1808 500.0713 387.5613 515.9938 390.3861 510.1415 425.6297"/>
        <ellipse class="r" cx="497.2878" cy="405.3027" rx="17.9989" ry="11.7581" transform="translate(9.8511 822.4009) rotate(-79.7345)"/>
        <polyline class="i" points="495.4819 404.8699 495.4819 404.8699 445.2479 396.2619"/>
      </g>
      <g>
        <path class="s" d="M458.6021,425.3371c6.8591-2.1969,21.0663-5.7088,24.8957-7.3027,3.8308-1.6034,7.9033-4.7307,9.8385-6.2656,1.9381-1.522,4.3202-4.9347,5.4562-6.5135,1.1301-1.5766.8771-2.4033-.2008-2.9382-1.0846-.5364-2.6612-.3737-4.222.4907,0,0,1.0156-2.1174,1.5155-3.191.5013-1.0795-.014-2.168-1.7899-2.3295-1.7796-.1612-4.888,1.0233-6.4337,2.8911,0,0,1.7604-4.4182,2.0732-5.5905.3205-1.1763.0688-1.7035-1.0732-2.1799-1.1415-.4693-3.068-.7549-4.8574.4134-1.7855,1.1647-3.6762,4.3398-3.6762,4.3398,0,0,1.2783-5.8263,1.4286-7.0565.1484-1.2357-.5766-1.6966-1.8462-1.5758-1.2691.1282-2.8548.2769-4.4682,2.0079-1.6114,1.7294-1.377,3.4808-1.8548,4.1298-.4718.6506-3.0224,2.6217-4.3117,3.6729-5.9286,1.8388-7.1813,4.1949-9.284,5.5717-2.103,1.3695-4.1561,3.2144-7.3427,4.1133-4.0603,1.0491-8.0939,6.4124-5.6143,12.1712,2.4858,5.7603,6.5214,6.7008,11.7675,5.1415Z"/>
        <polyline class="j" points="493.7064 403.5747 491.3882 407.4938 482.7675 413.5931"/>
        <polyline class="k" points="487.0783 401.0334 484.8077 404.1549 479.0334 409.3143"/>
        <line class="k" x1="479.8913" y1="398.0624" x2="474.3556" y2="404.4029"/>
      </g>
      <g>
        <ellipse class="c" cx="670.5238" cy="400.5558" rx="17.8684" ry="12.4246" transform="translate(213.4 1033.8685) rotate(-85.0315)"/>
        <polyline class="c" points="670.9688 418.5189 654.2173 417.5392 656.8554 381.5162 672.972 382.8423 670.4354 418.4782"/>
        <ellipse class="r" cx="655.7402" cy="399.44" rx="17.9989" ry="11.7581" transform="translate(201.6514 1018.5933) rotate(-85.091)"/>
        <polyline class="i" points="653.9018 399.1777 653.9018 399.1777 603.0836 395.2967"/>
      </g>
      <g>
        <path class="s" d="M617.302,422.3796c5.431-3.8687,16.9721-10.9375,19.9009-13.4314,2.9273-2.5029,5.6392-6.4574,6.914-8.3809,1.2811-1.9126,2.4219-5.6654,2.9797-7.4109.5531-1.7418.0976-2.4245-1.0035-2.6168-1.1074-.1919-2.4519.3861-3.5853,1.5979,0,0,.3001-2.2023.439-3.3149.1385-1.1183-.6221-1.9675-2.2337-1.6298-1.6147.3389-4.0228,2.2638-4.8605,4.3838,0,0,.3097-4.4975.2559-5.6488-.0482-1.157-.4185-1.5677-1.5596-1.6894-1.1387-.1153-2.918.1505-4.1674,1.7009-1.247,1.5461-2.0213,4.9489-2.0213,4.9489,0,0-.5115-5.6463-.7249-6.8059-.2167-1.164-.9856-1.3853-2.0713-.9292-1.0831.4628-2.4397,1.0305-3.3756,3.0446-.9347,2.0121-.2353,3.5406-.4742,4.261-.2331.7203-1.928,3.2083-2.7694,4.5158-4.7111,3.2892-5.1531,5.7733-6.6202,7.5987-1.4694,1.8189-2.761,4.0565-5.3185,5.7431-3.2856,2.0615-5.3342,8.0385-1.5278,12.5984,3.8124,4.5595,7.6358,4.3138,11.8236,1.4649Z"/>
        <polyline class="j" points="642.1386 393.0157 641.1965 397.2115 635.3097 405.109"/>
        <polyline class="k" points="635.5787 392.5131 634.4542 395.9708 630.8132 402.2372"/>
        <line class="k" x1="628.405" y1="391.7722" x2="625.3065" y2="399.0475"/>
      </g>
      <g>
        <ellipse class="c" cx="607.0337" cy="397.4458" rx="17.9304" ry="12.4283" transform="translate(182.9378 986.1696) rotate(-87.4465)"/>
        <polyline class="c" points="607.2871 415.2673 589.8239 415.0183 591.1309 379.0863 608.0508 379.5515 606.6465 415.3526"/>
        <ellipse class="r" cx="592.4833" cy="397.1789" rx="18.046" ry="11.5164" transform="translate(170.5145 972.2701) rotate(-87.5674)"/>
      </g>
      <g>
        <ellipse class="c" cx="453.168" cy="397.2238" rx="17.9304" ry="12.4283" transform="translate(-2.6404 791.415) rotate(-82.09)"/>
        <polyline class="c" points="451.7567 414.9911 434.3929 413.113 439.0486 377.4599 455.8513 379.5025 451.111 415.0162"/>
        <ellipse class="r" cx="438.7061" cy="395.5997" rx="18.046" ry="11.5164" transform="translate(-12.7007 776.6432) rotate(-82.2108)"/>
      </g>
    </g>
  </g>
</svg>